<?xml version="1.0" encoding="utf-8"?>
<!-- Generator: Adobe Illustrator 14.0.0, SVG Export Plug-In  -->
<!DOCTYPE svg PUBLIC "-//W3C//DTD SVG 1.1//EN" "http://www.w3.org/Graphics/SVG/1.1/DTD/svg11.dtd" [
	<!ENTITY ns_flows "http://ns.adobe.com/Flows/1.0/">
]>
<svg version="1.1"
	 xmlns="http://www.w3.org/2000/svg" xmlns:xlink="http://www.w3.org/1999/xlink" xmlns:a="http://ns.adobe.com/AdobeSVGViewerExtensions/3.0/"
	 x="0px" y="0px" width="1024px" height="1024px" viewBox="-1.516 0 1024 1024" enable-background="new -1.516 0 1024 1024"
	 xml:space="preserve">
<defs>
</defs>
<rect id="rect4108_1_" fill="#FFFFFF" width="1024" height="1024"/>
<linearGradient id="SVGID_2_" gradientUnits="userSpaceOnUse" x1="279.4722" y1="261.9053" x2="1499.5951" y2="1535.856">
	<stop  offset="0" style="stop-color:#231F20"/>
	<stop  offset="1" style="stop-color:#231F20;stop-opacity:0.88"/>
</linearGradient>
<path opacity="0.46" fill="url(#SVGID_2_)" d="M1024,482.155c-0.086-0.087-0.172-0.173-0.26-0.259
	c-0.502-0.503-1.006-1.006-1.512-1.506c-0.496-0.498-0.994-0.996-1.494-1.491c-0.533-0.534-1.068-1.069-1.605-1.601
	c-0.49-0.491-0.982-0.981-1.475-1.47c-0.525-0.526-1.053-1.052-1.58-1.574c-0.492-0.493-0.986-0.985-1.48-1.476
	c-0.518-0.52-1.037-1.037-1.559-1.553c-0.508-0.512-1.02-1.021-1.531-1.527c-0.51-0.512-1.02-1.021-1.533-1.527
	c-0.508-0.512-1.02-1.021-1.531-1.527c-0.516-0.518-1.033-1.033-1.555-1.549c-0.5-0.503-1.004-1.005-1.51-1.506
	c-0.504-0.506-1.01-1.01-1.518-1.512c-0.52-0.521-1.039-1.041-1.563-1.559c-0.498-0.498-0.996-0.996-1.496-1.49
	c-0.525-0.527-1.051-1.052-1.58-1.574c-0.49-0.494-0.984-0.986-1.479-1.477c-0.518-0.519-1.036-1.037-1.558-1.553
	c-0.509-0.512-1.02-1.02-1.532-1.527c-0.509-0.512-1.02-1.02-1.532-1.527c-0.509-0.512-1.02-1.02-1.532-1.527
	c-0.517-0.518-1.034-1.033-1.554-1.549c-0.502-0.502-1.006-1.004-1.512-1.506c-0.503-0.505-1.009-1.01-1.516-1.512
	c-0.521-0.521-1.041-1.041-1.563-1.559c-0.498-0.498-0.996-0.996-1.496-1.49c-0.525-0.526-1.052-1.051-1.579-1.574
	c-0.492-0.494-0.986-0.986-1.48-1.477c-0.518-0.519-1.037-1.037-1.559-1.553c-0.509-0.511-1.02-1.02-1.532-1.527
	c-0.516-0.518-1.033-1.033-1.553-1.548c-0.495-0.496-0.992-0.991-1.49-1.485c-0.523-0.524-1.048-1.047-1.574-1.569
	c-0.502-0.503-1.006-1.005-1.512-1.507c-0.504-0.505-1.01-1.009-1.517-1.512c-0.52-0.521-1.04-1.041-1.563-1.559
	c-0.505-0.505-1.011-1.01-1.518-1.512c-0.511-0.512-1.023-1.023-1.537-1.531c-0.499-0.501-1-1-1.502-1.497
	c-0.518-0.519-1.036-1.037-1.558-1.554c-0.509-0.511-1.02-1.02-1.532-1.527c-0.516-0.518-1.034-1.033-1.554-1.548
	c-0.494-0.496-0.991-0.991-1.49-1.485c-0.522-0.523-1.047-1.047-1.574-1.569c-0.502-0.503-1.006-1.005-1.512-1.507
	c-0.503-0.504-1.009-1.009-1.516-1.511c-0.52-0.521-1.041-1.041-1.563-1.56c-0.505-0.505-1.011-1.009-1.518-1.512
	c-0.511-0.512-1.023-1.022-1.537-1.531c-0.499-0.5-0.999-1-1.501-1.497c-0.518-0.519-1.037-1.037-1.559-1.554
	c-0.509-0.51-1.02-1.02-1.532-1.526c-0.516-0.519-1.033-1.033-1.553-1.548c-0.495-0.496-0.992-0.992-1.49-1.486
	c-0.523-0.523-1.048-1.047-1.574-1.568c-0.502-0.504-1.006-1.006-1.512-1.507c-0.504-0.505-1.01-1.009-1.517-1.512
	c-0.52-0.521-1.04-1.041-1.563-1.56c-0.505-0.504-1.011-1.009-1.518-1.511c-0.511-0.513-1.023-1.023-1.537-1.532
	c-0.506-0.508-1.014-1.014-1.522-1.518c-0.504-0.505-1.01-1.01-1.517-1.512c-0.517-0.518-1.033-1.033-1.553-1.548
	c-0.516-0.519-1.033-1.033-1.554-1.548c-0.494-0.496-0.991-0.992-1.49-1.486c-0.522-0.523-1.047-1.047-1.574-1.568
	c-0.502-0.504-1.005-1.006-1.511-1.507c-0.504-0.505-1.01-1.009-1.517-1.511c-0.52-0.521-1.04-1.041-1.563-1.56
	c-0.505-0.505-1.011-1.009-1.518-1.511c-0.51-0.513-1.023-1.023-1.537-1.533c-0.506-0.507-1.014-1.014-1.521-1.518
	c-0.504-0.505-1.01-1.009-1.517-1.512c-0.517-0.518-1.033-1.033-1.554-1.547c-0.516-0.519-1.033-1.033-1.553-1.549
	c-0.495-0.496-0.992-0.991-1.49-1.486c-0.523-0.523-1.048-1.047-1.574-1.568c-0.502-0.503-1.006-1.006-1.512-1.506
	c-0.504-0.506-1.01-1.01-1.516-1.512c-0.521-0.521-1.041-1.041-1.563-1.56c-0.505-0.505-1.011-1.009-1.518-1.511
	c-0.511-0.513-1.023-1.023-1.537-1.533c-0.506-0.507-1.014-1.013-1.522-1.518c-0.511-0.512-1.023-1.022-1.537-1.531
	c-0.509-0.51-1.02-1.02-1.532-1.527c-0.509-0.51-1.02-1.02-1.532-1.527c-0.502-0.504-1.006-1.006-1.512-1.507
	c-0.522-0.524-1.047-1.047-1.574-1.569c-0.502-0.503-1.005-1.005-1.511-1.506c-0.504-0.506-1.01-1.01-1.517-1.512
	c-0.52-0.521-1.04-1.041-1.563-1.559c-0.505-0.506-1.011-1.01-1.517-1.512c-0.511-0.512-1.023-1.023-1.538-1.533
	c-0.505-0.506-1.013-1.013-1.521-1.517c-0.511-0.513-1.023-1.023-1.538-1.532c-0.508-0.51-1.02-1.02-1.532-1.527
	c-0.509-0.51-1.02-1.02-1.532-1.527c-0.501-0.504-1.005-1.006-1.511-1.506c-0.522-0.525-1.048-1.048-1.574-1.57
	c-0.502-0.502-1.006-1.005-1.512-1.506c-0.504-0.506-1.009-1.01-1.516-1.512c-0.521-0.521-1.041-1.041-1.563-1.559
	c-0.505-0.506-1.011-1.01-1.518-1.512c-0.511-0.512-1.023-1.023-1.537-1.532c-0.506-0.507-1.014-1.013-1.522-1.518
	c-0.511-0.512-1.023-1.022-1.537-1.532c-0.509-0.51-1.02-1.02-1.532-1.527c-0.509-0.51-1.02-1.02-1.532-1.527
	c-0.509-0.51-1.02-1.02-1.532-1.527c-0.509-0.51-1.02-1.02-1.532-1.527c-0.509-0.51-1.02-1.02-1.532-1.527
	c-0.504-0.505-1.01-1.01-1.517-1.512c-0.52-0.521-1.04-1.041-1.563-1.559c-0.504-0.506-1.01-1.01-1.517-1.512
	c-0.511-0.512-1.023-1.023-1.537-1.531c-0.506-0.508-1.014-1.014-1.522-1.518c-0.511-0.513-1.023-1.023-1.537-1.533
	c-0.509-0.51-1.02-1.02-1.532-1.527c-0.509-0.51-1.02-1.02-1.532-1.527c-0.51-0.51-1.02-1.019-1.533-1.527
	c-0.508-0.51-1.02-1.019-1.532-1.527c-0.509-0.51-1.02-1.019-1.532-1.527c-0.504-0.504-1.009-1.009-1.516-1.511
	c-0.521-0.521-1.041-1.042-1.563-1.56c-0.505-0.505-1.011-1.009-1.518-1.512c-0.511-0.512-1.023-1.022-1.537-1.531
	c-0.506-0.508-1.014-1.014-1.522-1.518c-0.511-0.512-1.023-1.023-1.537-1.533c-0.509-0.51-1.02-1.019-1.532-1.527
	c-0.509-0.51-1.02-1.019-1.532-1.527c-0.509-0.51-1.02-1.019-1.532-1.527c-0.509-0.51-1.02-1.019-1.532-1.527
	c-0.509-0.51-1.02-1.019-1.532-1.526c-0.504-0.505-1.01-1.009-1.517-1.512c-0.52-0.521-1.04-1.041-1.563-1.56
	c-0.505-0.504-1.011-1.009-1.518-1.511c-0.509-0.511-1.02-1.02-1.532-1.527c-0.509-0.511-1.02-1.019-1.532-1.527
	c-0.509-0.511-1.02-1.019-1.532-1.527c-0.509-0.511-1.02-1.019-1.532-1.527c-0.509-0.511-1.02-1.019-1.532-1.527
	c-0.509-0.511-1.02-1.019-1.532-1.527c-0.509-0.511-1.02-1.019-1.533-1.527c-0.508-0.511-1.02-1.019-1.532-1.527
	c-0.503-0.505-1.009-1.009-1.516-1.511c-0.52-0.521-1.041-1.041-1.563-1.56c-0.505-0.505-1.011-1.009-1.518-1.512
	c-0.509-0.51-1.02-1.019-1.532-1.527c-0.509-0.51-1.02-1.019-1.532-1.527c-0.509-0.51-1.02-1.019-1.532-1.526
	c-0.509-0.511-1.02-1.02-1.532-1.527c-0.509-0.511-1.02-1.02-1.532-1.527c-0.509-0.511-1.02-1.02-1.532-1.527
	c-0.509-0.511-1.02-1.02-1.532-1.527c-0.509-0.511-1.02-1.02-1.532-1.527c-0.504-0.506-1.01-1.01-1.517-1.512
	c-0.52-0.521-1.04-1.041-1.563-1.56c-69.195-69.354-165.014-112.29-270.895-112.29c-210.996,0-382.045,170.496-382.045,380.813
	c0,105.537,43.076,201.045,112.653,270.018c0.521,0.52,1.042,1.041,1.564,1.559c0.499,0.5,0.999,0.998,1.501,1.496
	c0.52,0.52,1.041,1.041,1.563,1.559c0.492,0.494,0.987,0.986,1.482,1.477c0.529,0.531,1.06,1.061,1.593,1.588
	c0.495,0.496,0.991,0.992,1.49,1.486c0.521,0.523,1.046,1.045,1.571,1.566c0.496,0.496,0.994,0.992,1.493,1.488
	c0.515,0.516,1.03,1.029,1.548,1.543c0.515,0.516,1.03,1.029,1.548,1.543c0.499,0.5,1,0.998,1.501,1.494
	c0.52,0.521,1.041,1.043,1.563,1.561c0.499,0.5,1,0.998,1.501,1.494c0.52,0.521,1.041,1.041,1.563,1.561
	c0.493,0.494,0.987,0.986,1.482,1.477c0.529,0.531,1.061,1.061,1.593,1.588c0.495,0.496,0.992,0.992,1.49,1.484
	c0.522,0.525,1.047,1.047,1.572,1.568c0.496,0.496,0.993,0.992,1.492,1.486c0.515,0.518,1.03,1.031,1.549,1.545
	c0.514,0.516,1.03,1.029,1.547,1.543c0.5,0.5,1,0.998,1.501,1.494c0.521,0.521,1.042,1.041,1.564,1.561
	c0.499,0.5,0.999,0.998,1.5,1.494c0.521,0.521,1.042,1.041,1.564,1.561c0.499,0.5,0.999,0.998,1.501,1.494
	c0.517,0.52,1.035,1.037,1.556,1.551c0.501,0.504,1.004,1.006,1.509,1.504c0.521,0.525,1.046,1.047,1.571,1.568
	c0.5,0.5,1.001,1,1.503,1.498c0.508,0.508,1.017,1.016,1.527,1.521c0.518,0.52,1.038,1.037,1.559,1.555
	c0.499,0.5,0.999,0.998,1.501,1.494c0.52,0.521,1.041,1.041,1.563,1.559c0.499,0.502,1,1,1.501,1.496
	c0.52,0.521,1.041,1.041,1.563,1.559c0.499,0.502,1,1,1.501,1.496c0.518,0.52,1.036,1.037,1.557,1.551
	c0.501,0.504,1.004,1.006,1.508,1.504c0.522,0.523,1.047,1.047,1.571,1.566c0.5,0.502,1.002,1.002,1.504,1.5
	c0.508,0.508,1.017,1.016,1.527,1.521c0.518,0.52,1.037,1.037,1.558,1.553c0.5,0.5,1,1,1.501,1.496
	c0.52,0.521,1.042,1.041,1.563,1.559c0.5,0.5,1,0.998,1.501,1.496c0.521,0.521,1.042,1.041,1.564,1.559
	c0.499,0.5,0.999,0.998,1.5,1.496c0.518,0.52,1.036,1.037,1.557,1.551c0.501,0.504,1.004,1.004,1.508,1.504
	c0.522,0.523,1.047,1.047,1.572,1.566c0.5,0.502,1.001,1.002,1.503,1.5c0.508,0.508,1.017,1.016,1.527,1.521
	c0.518,0.52,1.038,1.037,1.559,1.553c0.499,0.5,0.999,0.998,1.501,1.496c0.52,0.521,1.041,1.041,1.563,1.559
	c0.499,0.5,0.999,0.998,1.501,1.496c0.52,0.521,1.041,1.041,1.563,1.559c0.499,0.5,1,0.998,1.501,1.496
	c0.52,0.521,1.041,1.041,1.563,1.559c0.496,0.498,0.994,0.994,1.493,1.488c0.525,0.527,1.051,1.051,1.579,1.574
	c0.5,0.502,1.001,1,1.504,1.498c0.508,0.51,1.017,1.018,1.527,1.523c0.518,0.52,1.037,1.037,1.558,1.553
	c0.5,0.5,1,0.998,1.501,1.496c0.52,0.521,1.042,1.041,1.563,1.559c0.5,0.5,1,0.998,1.501,1.496c0.52,0.521,1.042,1.041,1.563,1.559
	c0.5,0.5,1,0.998,1.501,1.496c0.521,0.521,1.042,1.041,1.564,1.559c0.496,0.498,0.993,0.994,1.493,1.488
	c0.524,0.525,1.051,1.051,1.579,1.574c0.5,0.502,1.001,1,1.503,1.498c0.508,0.508,1.017,1.018,1.527,1.523
	c0.518,0.518,1.037,1.037,1.559,1.553c0.499,0.5,0.999,0.998,1.501,1.496c0.52,0.52,1.041,1.041,1.563,1.559
	c0.499,0.5,0.999,0.998,1.501,1.496c0.52,0.52,1.041,1.041,1.563,1.559c0.499,0.5,0.999,0.998,1.501,1.496
	c0.52,0.52,1.041,1.041,1.563,1.559c0.509,0.51,1.019,1.018,1.529,1.523c0.501,0.502,1.003,1.004,1.506,1.502
	c0.513,0.514,1.026,1.025,1.541,1.535c0.508,0.508,1.017,1.016,1.527,1.523c0.518,0.518,1.037,1.037,1.558,1.553
	c0.499,0.5,1,0.998,1.501,1.496c0.52,0.52,1.041,1.041,1.563,1.559c0.5,0.5,1,0.998,1.501,1.494c0.52,0.521,1.042,1.043,1.563,1.561
	c0.5,0.5,1,0.998,1.501,1.494c0.52,0.521,1.042,1.041,1.563,1.561c0.509,0.508,1.019,1.018,1.53,1.523
	c0.501,0.502,1.003,1.002,1.506,1.502c0.512,0.514,1.025,1.025,1.54,1.535c0.508,0.508,1.017,1.016,1.527,1.521
	c0.518,0.52,1.037,1.037,1.559,1.555c0.499,0.5,0.999,0.998,1.5,1.494c0.521,0.521,1.042,1.041,1.564,1.561
	c0.499,0.5,0.999,0.998,1.501,1.494c0.52,0.521,1.041,1.041,1.563,1.561c0.499,0.5,0.999,0.998,1.501,1.494
	c0.52,0.521,1.041,1.041,1.563,1.561c0.511,0.512,1.023,1.021,1.538,1.531c0.495,0.496,0.991,0.992,1.49,1.486
	c0.515,0.516,1.03,1.029,1.548,1.543c0.507,0.508,1.016,1.016,1.526,1.521c0.519,0.52,1.038,1.037,1.559,1.555
	c0.499,0.5,1,0.998,1.501,1.494c0.52,0.521,1.041,1.041,1.563,1.561c0.499,0.5,1,0.998,1.501,1.494
	c0.52,0.521,1.041,1.041,1.563,1.559c0.5,0.502,1,1,1.501,1.496c0.52,0.521,1.042,1.041,1.563,1.559
	c0.512,0.514,1.024,1.023,1.538,1.533c0.495,0.496,0.992,0.992,1.49,1.486c0.515,0.516,1.03,1.029,1.548,1.543
	c0.508,0.508,1.017,1.016,1.527,1.521c0.518,0.52,1.037,1.037,1.559,1.553c0.499,0.5,0.999,1,1.5,1.496
	c0.521,0.521,1.042,1.041,1.564,1.559c0.499,0.5,0.999,1,1.5,1.496c0.521,0.521,1.042,1.041,1.564,1.559
	c0.499,0.5,0.999,0.998,1.501,1.496c0.52,0.521,1.041,1.041,1.563,1.559c0.511,0.514,1.023,1.023,1.537,1.533
	c0.496,0.496,0.992,0.99,1.491,1.484c0.515,0.518,1.03,1.031,1.547,1.545c0.508,0.508,1.017,1.016,1.527,1.521
	c0.519,0.52,1.038,1.037,1.559,1.553c0.499,0.5,1,0.998,1.501,1.496c0.52,0.521,1.041,1.041,1.563,1.559
	c0.499,0.5,1,0.998,1.501,1.496c0.52,0.521,1.041,1.041,1.563,1.559c0.512,0.512,1.024,1.023,1.538,1.533
	c0.495,0.496,0.992,0.99,1.49,1.484c0.522,0.525,1.048,1.047,1.574,1.57c0.499,0.5,0.999,0.998,1.501,1.494
	c0.507,0.51,1.017,1.018,1.526,1.523c0.512,0.514,1.023,1.023,1.537,1.533c0.52,0.52,1.038,1.037,1.56,1.553
	c0.499,0.5,0.998,0.998,1.5,1.496c0.52,0.521,1.042,1.041,1.564,1.559c0.499,0.5,0.999,0.998,1.5,1.496
	c0.521,0.521,1.042,1.041,1.564,1.559c0.511,0.512,1.023,1.021,1.537,1.533c0.496,0.496,0.993,0.99,1.49,1.484
	c0.523,0.525,1.048,1.047,1.574,1.57c0.499,0.5,1,0.998,1.502,1.494c0.507,0.51,1.017,1.018,1.526,1.523
	c0.512,0.512,1.023,1.023,1.537,1.533c0.519,0.52,1.037,1.037,1.559,1.553c0.499,0.5,0.999,0.998,1.501,1.496
	c0.52,0.52,1.041,1.041,1.563,1.559c0.499,0.5,0.999,0.998,1.501,1.496c0.52,0.52,1.041,1.041,1.564,1.559
	c0.511,0.512,1.023,1.021,1.537,1.531c0.495,0.498,0.992,0.992,1.49,1.486c0.169,0.17,0.341,0.34,0.512,0.51h527.703l9.264-9.232
	V482.155z"/>
<g>
	<defs>
		<ellipse id="SVGID_1_" cx="510.755" cy="509.107" rx="382.045" ry="380.811"/>
	</defs>
	<use xlink:href="#SVGID_1_"  overflow="visible" fill="#7F8C8D"/>
	<clipPath id="SVGID_3_">
		<use xlink:href="#SVGID_1_"  overflow="visible"/>
	</clipPath>
	<linearGradient id="SVGID_4_" gradientUnits="userSpaceOnUse" x1="980.5303" y1="1019.9473" x2="320.7541" y2="360.1711">
		<stop  offset="0" style="stop-color:#231F20"/>
		<stop  offset="1" style="stop-color:#231F20;stop-opacity:0.88"/>
	</linearGradient>
	<path opacity="0.46" clip-path="url(#SVGID_3_)" fill="url(#SVGID_4_)" d="M1124.962,771.674l0.145-3.746
		c-0.554,0.744-1.117,1.48-1.677,2.219l0.145-3.746c-0.554,0.746-1.117,1.48-1.678,2.219l0.146-3.746
		c-0.554,0.744-1.117,1.48-1.677,2.219l0.145-3.746c-0.554,0.746-1.117,1.48-1.678,2.219l0.146-3.746
		c-0.554,0.746-1.118,1.48-1.678,2.219l0.146-3.746c-0.554,0.746-1.118,1.48-1.678,2.219l0.145-3.746
		c-0.553,0.746-1.117,1.48-1.677,2.219l0.145-3.746c-0.554,0.746-1.117,1.48-1.677,2.219l0.145-3.746
		c-0.554,0.746-1.117,1.48-1.677,2.221l0.145-3.748c-0.554,0.746-1.117,1.48-1.677,2.221l0.145-3.748
		c-0.554,0.746-1.117,1.48-1.677,2.219l0.145-3.746c-0.554,0.746-1.117,1.48-1.677,2.221l0.145-3.748
		c-0.554,0.746-1.117,1.48-1.677,2.221l0.145-3.748c-0.554,0.746-1.117,1.48-1.677,2.219l0.145-3.746
		c-0.554,0.746-1.117,1.48-1.677,2.221l0.145-3.748c-0.554,0.746-1.117,1.48-1.677,2.219l0.145-3.746
		c-0.554,0.746-1.117,1.48-1.677,2.221l0.145-3.748c-0.554,0.746-1.117,1.48-1.677,2.221l0.145-3.748
		c-0.554,0.746-1.117,1.48-1.677,2.221l0.145-3.748c-0.554,0.746-1.117,1.48-1.677,2.219l0.145-3.746
		c-0.554,0.746-1.117,1.48-1.677,2.221l0.145-3.748c-0.554,0.746-1.117,1.48-1.677,2.219l0.145-3.746
		c-0.554,0.746-1.117,1.48-1.677,2.219l0.145-3.746c-0.554,0.746-1.117,1.48-1.677,2.221l0.145-3.748
		c-0.554,0.746-1.117,1.48-1.677,2.221l0.145-3.748c-0.554,0.746-1.117,1.48-1.677,2.221l0.045-1.199
		c1.252-1.125,2.498-2.264,3.752-3.406c1.682-1.527,3.365-3.068,5.085-4.559l0.943-44.652c-0.533,0.832-1.08,1.658-1.616,2.488
		l0.084-4.018c-0.538,0.842-1.077,1.682-1.617,2.52l0.085-4.045c-0.538,0.842-1.077,1.68-1.618,2.52l0.086-4.049
		c-0.538,0.842-1.077,1.682-1.618,2.52l0.086-4.045c-0.538,0.842-1.077,1.68-1.618,2.52l0.086-4.049
		c-0.538,0.842-1.077,1.682-1.618,2.521l0.086-4.047c-0.538,0.842-1.078,1.682-1.619,2.521l0.086-4.051
		c-0.538,0.842-1.077,1.682-1.617,2.521l0.086-4.047c-0.538,0.842-1.077,1.68-1.618,2.52l0.086-4.047
		c-0.539,0.842-1.077,1.68-1.618,2.52l0.086-4.047c-0.539,0.842-1.077,1.68-1.618,2.52l0.086-4.047
		c-0.539,0.842-1.077,1.68-1.618,2.52l0.086-4.047c-0.539,0.842-1.077,1.68-1.618,2.52l0.086-4.047
		c-0.539,0.842-1.077,1.68-1.618,2.521l0.086-4.049c-0.539,0.84-1.077,1.68-1.618,2.52l0.086-4.047
		c-0.539,0.842-1.077,1.68-1.618,2.52l0.086-4.047c-0.539,0.84-1.077,1.678-1.617,2.518l0.086-4.045
		c-0.539,0.842-1.079,1.682-1.619,2.521l0.086-4.049c-0.538,0.84-1.078,1.678-1.617,2.518l0.086-4.045
		c-0.539,0.842-1.08,1.684-1.62,2.521l0.086-4.049c-0.538,0.84-1.077,1.678-1.616,2.518l0.086-4.045
		c-0.539,0.842-1.079,1.682-1.618,2.521l0.084-4.049c-0.537,0.84-1.076,1.682-1.617,2.52l0.086-4.047
		c-0.539,0.84-1.078,1.68-1.617,2.52l0.084-4.047c-0.537,0.842-1.076,1.682-1.617,2.521l0.086-4.049
		c-0.539,0.84-1.078,1.68-1.619,2.52l0.086-4.047c-0.537,0.842-1.076,1.682-1.617,2.52l0.086-4.047
		c-0.537,0.84-1.078,1.68-1.617,2.518l0.086-4.045c-0.539,0.842-1.078,1.682-1.619,2.521l0.086-4.049
		c-0.539,0.84-1.078,1.68-1.619,2.52l0.086-4.047c-0.537,0.842-1.076,1.682-1.617,2.52l0.086-4.047
		c-0.537,0.842-1.078,1.68-1.617,2.518l0.086-4.045c-0.539,0.842-1.078,1.682-1.619,2.521l0.086-4.049
		c-0.539,0.84-1.078,1.682-1.619,2.52l0.086-4.047c-0.539,0.84-1.076,1.68-1.617,2.52l0.086-4.047
		c-0.539,0.84-1.078,1.68-1.617,2.52l0.086-4.047c-0.539,0.842-1.078,1.682-1.619,2.52l0.086-4.047
		c-0.539,0.842-1.078,1.68-1.617,2.52l0.086-4.047c-0.539,0.842-1.078,1.682-1.619,2.52l0.086-4.047
		c-0.539,0.842-1.078,1.682-1.619,2.52l0.086-4.047c-0.537,0.842-1.076,1.68-1.617,2.518l0.086-4.043
		c-0.539,0.842-1.078,1.68-1.619,2.52l0.086-4.049c-0.537,0.842-1.078,1.68-1.617,2.518l0.086-4.045
		c-0.539,0.842-1.078,1.682-1.619,2.521l0.086-4.049c-0.539,0.842-1.078,1.682-1.617,2.52l0.086-4.047
		c-0.539,0.842-1.078,1.682-1.619,2.52l0.086-4.047c-0.537,0.842-1.078,1.68-1.617,2.52l0.086-4.047
		c-0.539,0.842-1.078,1.682-1.619,2.521l0.086-4.049c-0.539,0.842-1.078,1.682-1.617,2.521l0.084-4.049
		c-0.537,0.842-1.076,1.682-1.617,2.521l0.086-4.049c-0.539,0.842-1.078,1.682-1.619,2.521l0.086-4.049
		c-0.537,0.842-1.076,1.68-1.617,2.52l0.086-4.045c-0.537,0.84-1.078,1.68-1.619,2.52l0.086-4.047
		c-0.537,0.84-1.076,1.68-1.617,2.518l0.086-4.045c-0.537,0.84-1.078,1.68-1.619,2.52l0.086-4.047
		c-0.537,0.842-1.076,1.68-1.617,2.52l0.086-4.049c-0.539,0.842-1.078,1.682-1.619,2.521l0.086-4.049
		c-0.537,0.842-1.076,1.68-1.617,2.52l0.086-4.047c-0.539,0.842-1.078,1.682-1.619,2.521l0.086-4.049
		c-0.539,0.842-1.076,1.682-1.617,2.521l0.086-4.049c-0.539,0.842-1.078,1.682-1.619,2.521l0.086-4.047
		c-0.539,0.84-1.076,1.682-1.617,2.52l0.086-4.047c-0.539,0.84-1.078,1.68-1.619,2.52l0.086-4.049
		c-0.538,0.842-1.076,1.682-1.617,2.521l0.086-4.047c-0.538,0.84-1.077,1.68-1.617,2.518l0.086-4.045
		c-0.539,0.84-1.079,1.68-1.619,2.52l0.086-4.047c-0.538,0.84-1.077,1.68-1.617,2.518l0.086-4.047
		c-0.539,0.842-1.079,1.684-1.619,2.521l0.086-4.049c-0.538,0.842-1.078,1.682-1.617,2.52l0.086-4.047
		c-0.539,0.842-1.078,1.682-1.618,2.52l0.086-4.047c-0.539,0.842-1.079,1.684-1.619,2.523l0.086-4.049
		c-0.539,0.84-1.078,1.68-1.618,2.52l0.085-4.049c-0.538,0.842-1.077,1.682-1.617,2.521l0.085-4.047
		c-0.538,0.84-1.077,1.68-1.617,2.52l0.085-4.049c-0.538,0.842-1.077,1.682-1.617,2.521l0.085-4.047
		c-0.537,0.842-1.077,1.682-1.618,2.52l0.086-4.047c-0.537,0.84-1.077,1.68-1.617,2.518l0.086-4.047
		c-0.538,0.844-1.078,1.682-1.619,2.521l0.086-4.049c-0.538,0.842-1.077,1.682-1.618,2.521l0.086-4.047
		c-0.537,0.84-1.077,1.68-1.617,2.518l0.086-4.047c-0.538,0.842-1.078,1.682-1.619,2.521l0.086-4.049
		c-0.538,0.842-1.077,1.682-1.618,2.521l0.086-4.049c-0.539,0.842-1.077,1.682-1.618,2.52l0.086-4.045
		c-0.539,0.842-1.077,1.682-1.618,2.52l0.086-4.049c-0.539,0.842-1.077,1.682-1.618,2.521l0.086-4.049
		c-0.539,0.842-1.077,1.682-1.618,2.521l0.086-4.047c-0.538,0.842-1.077,1.68-1.617,2.518l0.086-4.047
		c-0.539,0.844-1.078,1.682-1.619,2.523l0.086-4.049c-0.539,0.842-1.077,1.68-1.618,2.52l0.086-4.049
		c-0.539,0.842-1.077,1.682-1.618,2.521l0.086-4.049c-0.539,0.842-1.078,1.682-1.618,2.521l0.086-4.049
		c-0.539,0.842-1.078,1.682-1.618,2.521l0.086-4.049c-0.539,0.842-1.078,1.682-1.618,2.521l0.086-4.047
		c-0.539,0.84-1.078,1.68-1.618,2.52l0.086-4.047c-0.539,0.84-1.078,1.68-1.618,2.52l0.085-4.047
		c-0.537,0.84-1.077,1.678-1.616,2.518l0.085-4.045c-0.538,0.842-1.078,1.68-1.618,2.521l0.085-4.049
		c-0.537,0.842-1.077,1.68-1.616,2.518l0.085-4.045c-0.538,0.842-1.078,1.68-1.619,2.521l0.086-4.049
		c-0.538,0.842-1.077,1.68-1.617,2.52l0.085-4.047c-0.538,0.84-1.077,1.68-1.618,2.52l0.086-4.047
		c-0.538,0.842-1.078,1.682-1.619,2.521l0.086-4.049c-0.537,0.84-1.076,1.68-1.617,2.52l0.086-4.047
		c-0.538,0.84-1.078,1.682-1.619,2.52l0.086-4.049c-0.537,0.842-1.076,1.682-1.616,2.52l0.086-4.045
		c-0.538,0.842-1.079,1.684-1.62,2.523l0.086-4.053c-0.538,0.842-1.076,1.68-1.616,2.52l0.086-4.045
		c-0.539,0.842-1.078,1.682-1.619,2.521l0.086-4.049c-0.538,0.842-1.077,1.68-1.617,2.518l0.086-4.045
		c-0.539,0.842-1.078,1.682-1.619,2.521l0.086-4.049c-0.538,0.842-1.077,1.682-1.618,2.52l0.086-4.047
		c-0.539,0.84-1.077,1.682-1.618,2.52l0.086-4.047c-0.539,0.842-1.078,1.682-1.619,2.521l0.086-4.049
		c-0.538,0.84-1.076,1.68-1.617,2.52l0.086-4.047c-0.539,0.84-1.079,1.682-1.619,2.52l0.086-4.049
		c-0.538,0.842-1.077,1.682-1.617,2.52l0.086-4.045c-0.539,0.842-1.079,1.682-1.619,2.521l0.086-4.051
		c-0.538,0.842-1.077,1.68-1.616,2.52l0.086-4.045c-0.539,0.842-1.08,1.684-1.62,2.521l0.085-4.051
		c-0.537,0.842-1.076,1.68-1.615,2.519l0.086-4.044c-0.539,0.842-1.079,1.682-1.619,2.521l0.085-4.049
		c-0.537,0.841-1.077,1.68-1.617,2.52l0.085-4.047c-0.538,0.841-1.077,1.682-1.617,2.521l0.085-4.047
		c-0.537,0.841-1.077,1.681-1.618,2.519l0.086-4.047c-0.537,0.841-1.077,1.682-1.618,2.521l0.086-4.048
		c-0.538,0.842-1.078,1.682-1.619,2.521l0.086-4.049c-0.537,0.841-1.076,1.681-1.617,2.52l0.086-4.046
		c-0.538,0.842-1.078,1.682-1.619,2.521l0.086-4.049c-0.537,0.841-1.076,1.679-1.616,2.519l0.086-4.045
		c-0.538,0.842-1.079,1.684-1.62,2.522l0.086-4.051c-0.538,0.841-1.076,1.679-1.616,2.518l0.086-4.044
		c-0.539,0.842-1.079,1.683-1.62,2.522l0.086-4.05c-0.538,0.842-1.076,1.681-1.617,2.519l0.086-4.046
		c-0.539,0.842-1.078,1.683-1.619,2.523l0.086-4.052c-0.538,0.841-1.076,1.681-1.617,2.52l0.086-4.046
		c-0.538,0.842-1.077,1.682-1.618,2.521l0.086-4.049c-0.539,0.842-1.078,1.682-1.619,2.521l0.086-4.05
		c-0.538,0.841-1.076,1.681-1.617,2.521l0.086-4.047c-0.539,0.842-1.078,1.682-1.619,2.521l0.086-4.05
		c-0.538,0.841-1.076,1.68-1.616,2.519l0.086-4.045c-0.539,0.842-1.08,1.684-1.62,2.523l0.086-4.052
		c-0.538,0.841-1.077,1.68-1.616,2.519l0.086-4.045c-0.54,0.842-1.08,1.683-1.62,2.523l0.086-4.051
		c-0.538,0.842-1.077,1.681-1.617,2.52l0.086-4.047c-0.539,0.842-1.079,1.683-1.619,2.521l0.085-4.049
		c-0.537,0.84-1.076,1.68-1.616,2.52l0.085-4.047c-0.538,0.842-1.078,1.683-1.618,2.521l0.085-4.049
		c-0.537,0.841-1.077,1.681-1.618,2.52l0.086-4.047c-0.537,0.841-1.076,1.68-1.617,2.52l0.086-4.047
		c-0.538,0.842-1.078,1.682-1.619,2.521l0.086-4.049c-0.537,0.841-1.076,1.68-1.617,2.52l0.086-4.047
		c-0.538,0.842-1.078,1.682-1.619,2.521l0.086-4.049c-0.537,0.841-1.076,1.68-1.617,2.52l0.086-4.047
		c-0.538,0.842-1.078,1.682-1.619,2.521l0.086-4.049c-0.537,0.842-1.076,1.682-1.617,2.52l0.086-4.047
		c-0.539,0.843-1.078,1.684-1.619,2.522l0.086-4.05c-0.538,0.842-1.076,1.682-1.617,2.52l0.086-4.047
		c-0.539,0.842-1.078,1.682-1.619,2.522l0.086-4.05c-0.538,0.842-1.077,1.682-1.618,2.521l0.086-4.048
		c-0.538,0.841-1.077,1.682-1.618,2.521l0.086-4.048c-0.538,0.842-1.077,1.682-1.618,2.521l0.086-4.048
		c-0.538,0.842-1.077,1.682-1.618,2.521l0.086-4.049c-0.538,0.841-1.078,1.682-1.618,2.521l0.086-4.048
		c-0.538,0.841-1.077,1.68-1.617,2.52l0.086-4.046c-0.539,0.841-1.079,1.681-1.619,2.521l0.086-4.049
		c-0.538,0.841-1.077,1.681-1.617,2.52l0.086-4.047c-0.539,0.843-1.079,1.683-1.619,2.521l0.086-4.05
		c-0.538,0.842-1.078,1.682-1.618,2.521l0.086-4.047c-0.538,0.841-1.078,1.681-1.618,2.52l0.085-4.047
		c-0.537,0.841-1.077,1.681-1.617,2.52l0.085-4.048c-0.537,0.842-1.077,1.682-1.617,2.521l0.085-4.048
		c-0.537,0.841-1.077,1.682-1.617,2.521l0.085-4.049c-0.537,0.842-1.077,1.682-1.618,2.521l0.086-4.047
		c-0.537,0.841-1.077,1.681-1.618,2.52l0.086-4.048c-0.537,0.842-1.076,1.681-1.617,2.52l0.086-4.046
		c-1.418,2.218-2.834,4.433-4.3,6.616c-1.461,2.176-2.973,4.308-4.524,6.408c-1.556,2.093-3.158,4.154-4.81,6.133
		c-1.649,1.982-3.356,3.923-5.108,5.766c-1.905,2-3.851,3.938-5.852,5.799c-2,1.871-4.054,3.672-6.147,5.385
		c-2.102,1.726-4.252,3.357-6.452,4.889c-2.194,1.525-4.447,2.953-6.749,4.249c-2.694,1.526-5.455,2.931-8.25,4.207
		c-2.806,1.28-5.638,2.463-8.516,3.498c-2.876,1.036-5.775,1.952-8.716,2.742c-0.141,0.038-0.282,0.065-0.423,0.103l-2.715-4.549
		l-0.313,0.517l-1.221-2.044l-0.312,0.517l-1.22-2.044l-0.312,0.517l-1.222-2.046l-0.312,0.52l-1.221-2.045l-0.311,0.516
		l-1.22-2.043l-0.313,0.52l-1.222-2.047l-0.311,0.518l-1.222-2.046l-0.312,0.519l-1.221-2.045l-0.312,0.518l-1.221-2.046
		l-0.313,0.519l-1.22-2.045l-0.313,0.518l-1.22-2.045l-0.313,0.518l-1.22-2.045l-0.313,0.518l-1.22-2.045l-0.312,0.516l-1.22-2.043
		l-0.313,0.518l-1.221-2.045l-0.312,0.516l-1.22-2.043l-0.313,0.518l-1.221-2.045l-0.312,0.516l-1.22-2.043l-0.313,0.518
		l-1.221-2.045l-0.312,0.516l-1.22-2.043l-0.313,0.518l-1.221-2.045l-0.313,0.518l-1.22-2.045l-0.313,0.518l-1.22-2.045
		l-0.313,0.518l-1.22-2.045l-0.312,0.516l-1.22-2.043l-0.313,0.519l-1.222-2.046l-0.311,0.517l-1.221-2.044l-0.312,0.519
		l-1.222-2.046l-0.311,0.517l-1.221-2.044l-0.312,0.519l-1.222-2.046l-0.311,0.517l-1.221-2.044l-0.312,0.519l-1.222-2.046
		l-0.313,0.518l-1.22-2.045l-0.313,0.518l-1.22-2.045l-0.313,0.518l-1.22-2.045l-0.312,0.517l-1.219-2.044l-0.313,0.52l-1.221-2.047
		l-0.312,0.517l-1.219-2.044l-0.313,0.52l-1.221-2.047l-0.312,0.517l-1.22-2.044l-0.313,0.52l-1.22-2.045l-0.312,0.516l-1.22-2.043
		l-0.313,0.518l-1.221-2.046l-0.313,0.517l-1.22-2.044l-0.312,0.517l-1.22-2.044l-0.313,0.519l-1.221-2.046l-0.312,0.517
		l-1.219-2.044l-0.313,0.519l-1.221-2.046l-0.312,0.517l-1.22-2.044l-0.313,0.519l-1.221-2.046l-0.313,0.517l-1.22-2.043
		l-0.312,0.518l-1.222-2.046l-0.312,0.517l-1.22-2.043l-0.311,0.518l-1.222-2.046l-0.313,0.519l-1.221-2.045l-0.311,0.516
		l-1.221-2.044l-0.312,0.519l-1.222-2.046l-0.311,0.517l-1.22-2.044l-0.313,0.519l-1.221-2.046l-0.312,0.517l-1.22-2.044
		l-0.313,0.519l-1.221-2.045l-0.313,0.516l-1.219-2.043l-0.313,0.518l-1.22-2.045l-0.313,0.518l-1.22-2.045l-0.312,0.518
		l-1.221-2.045l-0.313,0.519l-1.22-2.046l-0.311,0.516l-1.22-2.043l-0.313,0.519l-1.221-2.046l-0.312,0.516l-1.219-2.043
		l-0.313,0.519l-1.221-2.046l-0.312,0.516l-1.22-2.043l-0.313,0.518l-1.221-2.045l-0.313,0.517l-1.219-2.044l-0.313,0.518
		l-1.22-2.045l-0.313,0.518l-1.221-2.045l-0.311,0.518l-1.222-2.045l-0.312,0.518l-1.221-2.045l-0.311,0.517l-1.221-2.044
		l-0.313,0.519l-1.221-2.046l-0.311,0.517l-1.221-2.044l-0.313,0.519l-1.222-2.046l-0.311,0.516l-1.221-2.043l-0.313,0.518
		l-1.221-2.045l-0.313,0.518l-1.219-2.044l-0.313,0.519l-1.221-2.046l-0.312,0.517l-1.22-2.044l-0.312,0.517l-1.22-2.045
		l-0.313,0.52l-1.221-2.046l-0.312,0.517l-1.22-2.045l-0.313,0.518l-1.219-2.044l-0.313,0.517l-1.22-2.045l-0.313,0.52l-1.221-2.047
		l-0.312,0.516l-1.22-2.043l-0.313,0.518l-1.221-2.045l-0.312,0.516l-1.22-2.043l-0.313,0.518l-1.22-2.044l-0.313,0.517l-1.22-2.044
		l-0.312,0.517l-1.22-2.045l-0.313,0.52l-1.222-2.046l-0.31,0.515l-1.22-2.043l-0.313,0.52l-1.222-2.045l-0.311,0.516l-1.221-2.045
		l-0.312,0.518l-1.221-2.043l-0.311,0.516l-1.222-2.045l-0.312,0.518l-1.221-2.045l-0.312,0.518l-1.221-2.045l-0.313,0.519
		l-1.22-2.044l-0.312,0.517l-1.221-2.046l-0.312,0.517l-1.22-2.044l-0.313,0.52l-1.221-2.045l-0.311,0.515l-1.22-2.044l-0.313,0.52
		l-1.221-2.045l-0.312,0.516l-1.22-2.045l-0.313,0.52l-1.22-2.045l-0.312,0.516l-1.22-2.045l-0.313,0.518l-1.22-2.045l-0.313,0.518
		l-1.22-2.045l-0.313,0.518l-1.22-2.045l-0.313,0.518l-1.22-2.045l-0.312,0.517l-1.22-2.044l-0.313,0.52l-1.221-2.045l-0.311,0.515
		l-1.22-2.044l-0.313,0.52l-1.221-2.045l-0.311,0.516l-1.221-2.044l-0.313,0.519l-1.221-2.045l-0.311,0.518l-1.222-2.046
		l-0.312,0.519l-1.221-2.045l-0.311,0.518l-1.222-2.046l-0.312,0.517l-1.221-2.044l-0.312,0.517l-1.221-2.044l-0.311,0.517
		l-1.221-2.044l-0.313,0.519l-1.221-2.045l-0.311,0.516l-1.22-2.044l-0.313,0.519l-1.22-2.045l-0.312,0.516l-1.22-2.044
		l-0.313,0.519l-1.22-2.045l-0.312,0.518l-1.221-2.046l-0.313,0.519l-1.22-2.045l-0.312,0.518l-1.221-2.046l-0.313,0.517
		l-1.22-2.044l-0.313,0.517l-1.22-2.043l-0.312,0.516l-1.22-2.043l-0.314,0.518l-1.22-2.045l-0.312,0.516l-1.22-2.043l-0.313,0.519
		l-1.22-2.046l-0.312,0.517l-1.22-2.044l-0.313,0.519l-1.22-2.046l-0.312,0.518l-1.222-2.045l-0.312,0.518l-1.221-2.045
		l-0.311,0.518l-1.222-2.045l-0.312,0.518l-1.221-2.045l-0.311,0.518l-1.222-2.045l-0.311,0.516l-1.221-2.043l-0.313,0.519
		l-1.221-2.046l-0.311,0.517l-1.221-2.044l-0.313,0.519l-1.221-2.046l-0.312,0.517l-1.22-2.044l-0.313,0.519l-1.22-2.046
		l-0.312,0.518l-1.221-2.045l-0.313,0.518l-1.22-2.045l-0.311,0.518l-1.222-2.045l-0.313,0.518l-1.22-2.045l-0.312,0.518
		l-1.221-2.045l-0.313,0.518l-1.22-2.045l-0.313,0.518l-1.22-2.044l-0.312,0.517l-1.22-2.044l-0.313,0.517l-1.22-2.044l-0.313,0.519
		l-1.221-2.047l-0.313,0.518l-1.22-2.044l-0.312,0.517l-1.221-2.045l-0.313,0.518l-1.22-2.044l-0.312,0.517l-1.221-2.045
		l-0.313,0.518l-1.22-2.044l-0.312,0.517l-1.221-2.045l-0.313,0.518l-1.22-2.045L190.048,685.682h2.454l-0.922,1.527h2.454
		l-0.921,1.527h2.453l-0.922,1.527h2.454l-0.921,1.527h2.452l-0.921,1.527h2.454l-0.921,1.527h2.452l-0.921,1.527h2.454
		l-0.921,1.527h2.454l-0.922,1.529h2.452l-0.921,1.525h2.454l-0.921,1.527h2.453l-0.921,1.527h2.454l-0.922,1.527h2.453
		l-0.921,1.527h2.454l-0.922,1.527h2.453l-0.921,1.527h2.453l-0.921,1.527h2.453l-0.921,1.527h2.454l-0.922,1.529h2.454
		l-0.922,1.527h2.453l-0.921,1.525h2.454l-0.922,1.527h2.454l-0.922,1.527h2.454l-0.921,1.527h2.453l-0.922,1.527h2.454
		l-0.921,1.527h2.452l-0.921,1.527h2.454l-0.921,1.527h2.453l-0.921,1.527h2.453l-0.921,1.527h2.453l-0.921,1.527h2.453
		l-0.922,1.527h2.454l-0.921,1.527h2.453l-0.921,1.527h2.453l-0.921,1.527h2.453l-0.921,1.527h2.454l-0.922,1.527h2.453
		l-0.922,1.527h2.454l-0.921,1.527h2.453l-0.921,1.527h2.453l-0.921,1.527h2.453l-0.921,1.527h2.453l-0.921,1.527h2.454
		l-0.922,1.527h2.454L259,754.412h2.454l-0.922,1.527h2.454l-0.922,1.527h2.454l-0.921,1.527h2.452l-0.921,1.527h2.454l-0.922,1.527
		h2.454l-0.922,1.527h2.454l-0.922,1.527h2.454l-0.921,1.527h2.452l-0.92,1.527h2.453l-0.921,1.527h2.453l-0.921,1.527h2.453
		l-0.921,1.527h2.453l-0.921,1.527h2.453l-0.921,1.527h2.453l-0.921,1.527h2.453l-0.921,1.527h2.453l-0.922,1.527h2.455
		l-0.922,1.527h2.453l-0.921,1.527h2.453l-0.921,1.527h2.453l-0.921,1.527h2.454l-0.921,1.527h2.452l-0.921,1.527h2.454
		l-0.922,1.527h2.454l-0.922,1.525h2.454l-0.922,1.527h2.455l-0.922,1.529h2.452l-0.921,1.525h2.454l-0.922,1.529h2.454
		l-0.922,1.527h2.454l-0.922,1.527h2.454l-0.921,1.527h2.453l-0.921,1.527h2.453l-0.921,1.527h2.452l-0.92,1.525h2.454l-0.922,1.529
		h2.453l-0.921,1.525h2.454l-0.922,1.529h2.453l-0.921,1.525h2.453l-0.921,1.527h2.454l-0.922,1.529h2.453l-0.921,1.527h2.453
		l-0.921,1.527h2.454l-0.921,1.527h2.453l-0.921,1.527h2.452l-0.92,1.525h2.454l-0.922,1.529h2.452l-0.921,1.525h2.455l-0.922,1.529
		h2.453l-0.921,1.525h2.453l-0.921,1.527h2.454l-0.922,1.529h2.452l-0.921,1.525h2.455l-0.922,1.529h2.453l-0.921,1.527h2.453
		l-0.921,1.527h2.453l-0.921,1.527h2.454l-0.921,1.527h2.452l-0.921,1.527h2.454l-0.922,1.527h2.453l-0.921,1.525h2.454
		l-0.922,1.529h2.454l-0.922,1.527h2.453l-0.921,1.527h2.454l-0.922,1.525h2.454l-0.922,1.527h2.454l-0.922,1.527h2.453
		l-0.921,1.527h2.455l-0.922,1.527h2.452l-0.921,1.527h2.454l-0.921,1.529h2.451l-0.919,1.525h2.454l-0.922,1.527h2.453
		l-0.921,1.527h2.453l-0.922,1.527h2.454l-0.921,1.527h2.453l-0.921,1.527h2.453l-0.921,1.527h2.453l-0.921,1.527h2.454
		l-0.922,1.527h2.452l-0.92,1.527h2.454l-0.922,1.527h2.453l-0.921,1.527h2.454l-0.922,1.527h2.454l-0.922,1.527h2.453l-0.921,1.527
		h2.454l-0.922,1.527h2.454l-0.922,1.527h2.454l-0.922,1.529h2.452l-0.92,1.525h2.454l-0.922,1.527h2.453l-0.921,1.527h2.454
		l-0.922,1.527h2.453l-0.92,1.527h2.453l-0.922,1.527h2.454l-0.921,1.527h2.452l-0.921,1.527h2.455l-0.922,1.527h2.453l-0.921,1.527
		h2.454l-0.922,1.529h2.451l-0.92,1.525h2.455l-0.922,1.527h2.453l-0.921,1.527h2.453l-0.922,1.527h2.454l-0.921,1.525h2.453
		l-0.921,1.529h2.453l-0.921,1.527h2.452l-0.92,1.525h2.454l-0.922,1.529h2.453l-0.921,1.525h2.454l-0.922,1.529h2.453l-0.921,1.525
		h2.454L432.146,927h2.453l-0.921,1.525h2.454l-0.922,1.529h2.453l-0.921,1.525h2.454l-0.922,1.529h2.454l-0.921,1.527h2.452
		l-0.921,1.525h2.454l-0.922,1.529h2.454l-0.921,1.525h2.454l-0.922,1.529h2.453l-0.921,1.525h2.453l-0.922,1.529h2.453
		l-0.921,1.525h2.455l-0.922,1.529h2.453l-0.921,1.525h2.453l-0.921,1.527h2.454l-0.922,1.529h2.453l-0.921,1.525l589.316,0.002
		L995.289,865.5c-0.215-0.01-0.432-0.035-0.647-0.047l-0.884-1.48c-0.216-0.01-0.433-0.035-0.649-0.047l-0.884-1.48
		c-0.216-0.01-0.433-0.035-0.648-0.047l-0.884-1.48c-0.216-0.01-0.433-0.035-0.648-0.047l-0.884-1.48
		c-0.216-0.01-0.433-0.035-0.648-0.047l-0.884-1.48c-0.217-0.01-0.433-0.035-0.648-0.047l-0.884-1.48
		c-0.216-0.01-0.433-0.035-0.648-0.047l-0.884-1.48c-0.217-0.01-0.433-0.035-0.648-0.047l-0.884-1.48
		c-0.217-0.01-0.433-0.035-0.648-0.047l-0.884-1.48c-0.217-0.01-0.432-0.035-0.648-0.047l-0.884-1.48
		c-0.217-0.012-0.433-0.035-0.649-0.049l-0.883-1.479c-0.216-0.01-0.432-0.035-0.647-0.047l-0.884-1.48
		c-0.217-0.01-0.433-0.033-0.649-0.047l-0.884-1.48c-0.217-0.01-0.433-0.033-0.648-0.047l-0.884-1.48
		c-0.217-0.01-0.433-0.033-0.648-0.047l-0.884-1.48c-0.217-0.01-0.434-0.033-0.648-0.047l-0.884-1.48
		c-0.216-0.01-0.433-0.033-0.647-0.047l-0.884-1.48c-0.217-0.01-0.433-0.033-0.648-0.047l-0.884-1.48
		c-0.217-0.012-0.434-0.035-0.649-0.049l-0.883-1.479c-0.217-0.01-0.434-0.033-0.649-0.047l-0.884-1.48
		c-0.217-0.01-0.433-0.033-0.648-0.047l-0.883-1.479c-0.217-0.012-0.434-0.035-0.649-0.047l-0.885-1.482
		c-0.215-0.01-0.432-0.033-0.646-0.047l-0.885-1.48c-0.216-0.01-0.433-0.033-0.648-0.047l-0.885-1.48
		c-0.216-0.01-0.433-0.033-0.648-0.047l-0.884-1.48c-0.216-0.01-0.433-0.033-0.648-0.047l-0.884-1.48
		c-0.216-0.01-0.433-0.033-0.648-0.047l-0.884-1.479c-0.215-0.012-0.432-0.035-0.647-0.049l-0.884-1.479
		c-0.216-0.012-0.432-0.035-0.648-0.049l-0.884-1.48c-0.216-0.012-0.434-0.035-0.65-0.047l-0.883-1.479
		c-0.215-0.012-0.432-0.035-0.647-0.049l-0.884-1.479c-0.217-0.012-0.433-0.035-0.649-0.049l-0.57-0.955
		c3.146,1.48,6.31,2.902,9.485,4.283l0.613,0.902c0.17,0.01,0.344,0.02,0.516,0.029l1.016,1.498c0.171,0.01,0.345,0.02,0.518,0.029
		l1.016,1.498c0.17,0.01,0.344,0.02,0.516,0.029l1.016,1.498c0.17,0.01,0.344,0.018,0.517,0.029l1.016,1.498
		c0.17,0.01,0.345,0.018,0.517,0.029l1.016,1.498c0.17,0.01,0.344,0.018,0.517,0.029l1.016,1.498
		c0.171,0.01,0.345,0.018,0.517,0.029l1.016,1.498c0.172,0.01,0.344,0.018,0.517,0.029l1.016,1.498
		c0.171,0.01,0.345,0.018,0.517,0.029l1.016,1.498c0.172,0.01,0.344,0.018,0.517,0.029l1.016,1.498
		c0.172,0.01,0.345,0.018,0.518,0.029l1.016,1.498c0.171,0.01,0.345,0.018,0.516,0.027l1.016,1.5
		c0.172,0.01,0.347,0.018,0.518,0.029l1.016,1.496c0.171,0.012,0.344,0.02,0.515,0.029l1.017,1.5
		c0.171,0.01,0.345,0.018,0.517,0.029l1.016,1.498c0.171,0.01,0.346,0.018,0.517,0.029l1.016,1.498
		c0.171,0.01,0.345,0.018,0.517,0.029l1.016,1.498c0.171,0.01,0.346,0.018,0.517,0.027l1.016,1.5
		c0.171,0.01,0.345,0.018,0.517,0.027l1.016,1.5c0.172,0.01,0.346,0.018,0.518,0.027l1.015,1.498
		c0.172,0.012,0.345,0.02,0.517,0.029l1.016,1.5c0.172,0.01,0.346,0.018,0.519,0.029l1.015,1.498
		c0.171,0.01,0.345,0.018,0.517,0.027l1.015,1.5c0.172,0.01,0.347,0.018,0.519,0.029l1.016,1.496c0.17,0.012,0.344,0.02,0.515,0.029
		l1.017,1.5c0.17,0.01,0.344,0.018,0.517,0.027l1.016,1.5c0.17,0.01,0.345,0.018,0.517,0.027l1.016,1.5
		c0.584,0.035,1.174,0.07,1.764,0.1c0.576,0.025,1.168,0.064,1.758,0.092c0.574,0.021,1.178,0.053,1.768,0.064
		c0.576,0.023,1.178,0.039,1.768,0.049c2.02,0.049,4.072,0.068,6.111,0.057c2.039-0.025,4.088-0.066,6.123-0.137
		c2.043-0.07,4.078-0.176,6.111-0.295c2.021-0.123,4.047-0.27,6.055-0.439c3.049-0.281,6.076-0.643,9.088-1.107
		c3.023-0.471,6.037-1.025,9.031-1.672c2.99-0.629,5.975-1.365,8.934-2.176c2.963-0.836,5.897-1.73,8.811-2.723
		c2.955-0.975,5.85-2.076,8.717-3.256c2.86-1.191,5.691-2.473,8.499-3.834c2.789-1.354,5.551-2.779,8.282-4.264
		c2.726-1.477,5.433-3.018,8.098-4.594c2.263-1.336,4.465-2.768,6.634-4.273c2.167-1.508,4.291-3.08,6.409-4.67
		c2.13-1.586,4.225-3.219,6.32-4.82c2.104-1.605,4.199-3.191,6.327-4.732l1.993-51.488
		C1126.085,770.201,1125.521,770.936,1124.962,771.674z"/>
	<g clip-path="url(#SVGID_3_)">
		<g>
			<path fill="#1279BF" d="M850.938,508.467c-2.058,2.564-4.154,5.078-6.31,7.555c-2.155,2.459-4.364,4.863-6.658,7.184
				c-2.291,2.328-4.659,4.574-7.13,6.73c-2.305,2.01-4.659,3.994-7.052,5.881c-2.421,1.895-4.897,3.721-7.428,5.459
				c-2.529,1.729-5.119,3.389-7.769,4.924c-2.639,1.531-5.342,2.959-8.102,4.264c-3.255,1.531-6.594,2.934-9.98,4.193
				c-3.4,1.281-6.843,2.412-10.333,3.428c-3.493,1.016-7.009,1.893-10.547,2.658c-3.552,0.744-7.105,1.381-10.658,1.893
				c-1.541,0.219-3.093,0.395-4.632,0.553c-1.556,0.156-3.107,0.27-4.655,0.371c-1.55,0.092-3.114,0.141-4.664,0.176
				c-1.553,0.021-3.113,0.016-4.665-0.02c-1.08-0.023-2.152-0.064-3.222-0.121c-1.082-0.057-2.148-0.119-3.223-0.207
				c-1.061-0.082-2.14-0.168-3.204-0.283c-1.069-0.115-2.145-0.238-3.211-0.373c-2.146-0.271-4.254-0.639-6.36-1.045
				c-2.109-0.408-4.185-0.893-6.268-1.424c-2.081-0.537-4.146-1.1-6.214-1.723c-2.062-0.605-4.105-1.256-6.17-1.93l25.875,38.156
				c0.585,0.035,1.176,0.07,1.764,0.098c0.577,0.027,1.168,0.066,1.757,0.094c0.576,0.023,1.179,0.053,1.769,0.064
				c0.576,0.023,1.178,0.039,1.767,0.049c2.021,0.051,4.075,0.07,6.114,0.057c2.037-0.027,4.086-0.066,6.12-0.137
				c2.044-0.07,4.079-0.174,6.11-0.295c2.023-0.125,4.049-0.27,6.058-0.439c3.046-0.281,6.075-0.641,9.088-1.107
				c3.021-0.471,6.036-1.025,9.03-1.67c2.991-0.631,5.976-1.365,8.936-2.176c2.96-0.838,5.896-1.732,8.809-2.725
				c2.957-0.975,5.852-2.076,8.719-3.256c2.858-1.191,5.69-2.473,8.496-3.834c2.792-1.354,5.554-2.777,8.285-4.266
				c2.726-1.475,5.431-3.016,8.098-4.592c2.261-1.338,4.465-2.77,6.634-4.273c2.165-1.508,4.29-3.08,6.409-4.67
				c2.13-1.584,4.223-3.219,6.32-4.82c2.102-1.605,4.198-3.191,6.325-4.732l1.994-51.488
				C854.994,503.299,852.987,505.904,850.938,508.467z"/>
			<path fill="#1279BF" d="M648.99,468.936c0.176,0.098,0.346,0.184,0.52,0.273c0.171,0.105,0.326,0.19,0.49,0.281
				c0.161,0.076,0.303,0.154,0.456,0.24c4.656,2.096,9.261,4.352,13.854,6.625c4.586,2.273,9.163,4.572,13.754,6.741
				c4.594,2.167,9.189,4.214,13.856,5.97c4.656,1.781,9.371,3.279,14.165,4.347c1.735,0.382,3.473,0.728,5.226,1.001
				c1.754,0.298,3.519,0.528,5.286,0.719c1.765,0.2,3.543,0.351,5.322,0.474c1.772,0.109,3.567,0.185,5.349,0.222
				c1.672,0.035,3.36,0.035,5.048-0.002c1.699-0.029,3.377-0.1,5.07-0.185c1.682-0.085,3.372-0.2,5.061-0.329
				c1.669-0.146,3.346-0.297,5.021-0.465c2.479-0.281,4.96-0.666,7.413-1.137c2.462-0.473,4.907-1.027,7.345-1.661
				c2.432-0.652,4.84-1.382,7.246-2.197c2.4-0.811,4.775-1.706,7.147-2.683c2.377-0.945,4.723-2.021,7.045-3.161
				c2.316-1.173,4.61-2.413,6.881-3.724c2.269-1.333,4.51-2.729,6.728-4.175c2.215-1.446,4.398-2.968,6.567-4.515
				c1.777-1.266,3.51-2.631,5.238-4.047c1.716-1.42,3.416-2.896,5.103-4.414c1.691-1.497,3.371-3.043,5.06-4.584
				c1.685-1.525,3.368-3.068,5.087-4.558l0.942-44.654c-1.416,2.218-2.846,4.424-4.3,6.618c-1.473,2.166-2.973,4.306-4.524,6.408
				c-1.554,2.091-3.149,4.159-4.807,6.132c-1.644,1.989-3.354,3.927-5.111,5.765c-1.899,2.006-3.851,3.938-5.852,5.8
				c-2,1.87-4.055,3.671-6.146,5.384c-2.103,1.727-4.257,3.353-6.454,4.889c-2.197,1.521-4.447,2.954-6.748,4.249
				c-2.693,1.526-5.452,2.937-8.25,4.207c-2.803,1.286-5.639,2.464-8.516,3.499c-2.876,1.036-5.776,1.953-8.714,2.742
				c-2.918,0.781-5.865,1.426-8.831,1.941c-1.22,0.225-2.444,0.401-3.677,0.545c-1.229,0.156-2.471,0.282-3.711,0.361
				c-1.24,0.096-2.481,0.16-3.731,0.174c-1.24,0.035-2.488,0.037-3.735,0.012c-0.988-0.014-1.978-0.057-2.967-0.105
				c-0.981-0.046-1.964-0.105-2.947-0.176c-0.977-0.075-1.954-0.164-2.923-0.271c-0.963-0.109-1.919-0.229-2.871-0.363
				c-2.428-0.359-4.828-0.842-7.198-1.417c-2.363-0.585-4.722-1.266-7.042-2.012c-2.337-0.739-4.649-1.552-6.944-2.411
				c-2.289-0.848-4.553-1.746-6.813-2.662c-6.043-2.402-12.008-5.04-17.922-7.813c-5.917-2.787-11.771-5.727-17.592-8.748
				c-5.826-3.027-11.604-6.139-17.379-9.271c-5.781-3.146-11.535-6.307-17.299-9.42l26.17,45.262
				C648.623,468.744,648.816,468.845,648.99,468.936z"/>
			<path fill="#F8951D" d="M709.671,594.555c-19.521-4.076-37.656-14.857-56.209-23.078c-33.845-14.912-65.171-39.58-100.567-47.387
				c-4.277-0.959-8.645-1.379-13.02-1.381c-5.673,0-11.367,0.691-16.924,1.787c-10.613,1.996-21.089,5.66-30.669,11.395
				c-8.743,5.256-16.875,12.508-23.826,20.803c-8.204,9.73-14.558,21.744-20.687,33.639l0.148-54.025
				c3.01-8.078,10.512-12.713,16.616-17.746c9.101-7.605,18.956-13.549,29.367-18.244c10.617-4.775,21.854-8.426,33.153-9.528
				c2.644-0.239,5.306-0.362,7.949-0.362c9.44,0.002,18.909,1.436,28.152,3.535c9.622,2.271,18.771,6.561,28.041,10.639
				c35.513,15.543,68.99,38.072,104.995,52.096c2.284,0.889,4.636,1.648,6.986,2.48l-52.008-87.191
				c-32.815-14.639-63.521-37.514-98.021-44.905c-4.262-0.926-8.601-1.321-12.943-1.321c-5.7,0-11.411,0.676-16.999,1.736
				c-10.605,1.932-21.016,5.595-30.662,11.2c-8.749,5.11-16.872,12.081-23.831,20.166c-8.198,9.46-14.543,21.004-20.673,32.606
				l0.146-52.293c5.498-5.803,10.513-12.299,16.616-17.205c9.103-7.314,18.962-13.471,29.368-17.953
				c10.618-4.641,21.854-8.098,33.147-9.129c2.849-0.258,5.694-0.379,8.537-0.379c9.25,0,18.514,1.289,27.569,3.353
				c9.624,2.141,18.771,6.636,28.039,10.567c10.171,4.355,20.142,9.328,30.107,14.444L484.563,193.304L188.516,684.154h589.317
				l-52.222-87.463C720.284,596.422,714.949,595.656,709.671,594.555z"/>
		</g>
	</g>
</g>
<rect opacity="0.11" fill="none" width="1021.512" height="1018.213"/>
</svg>
