<?xml version="1.0" encoding="UTF-8" standalone="no"?>
<!-- Created with Inkscape (http://www.inkscape.org/) -->

<svg
   xmlns:dc="http://purl.org/dc/elements/1.1/"
   xmlns:cc="http://creativecommons.org/ns#"
   xmlns:rdf="http://www.w3.org/1999/02/22-rdf-syntax-ns#"
   xmlns:svg="http://www.w3.org/2000/svg"
   xmlns="http://www.w3.org/2000/svg"
   xmlns:sodipodi="http://sodipodi.sourceforge.net/DTD/sodipodi-0.dtd"
   xmlns:inkscape="http://www.inkscape.org/namespaces/inkscape"
   id="svg2985"
   version="1.1"
   inkscape:version="0.48.4 r9939"
   width="40.894405"
   height="32.319851"
   xml:space="preserve"
   sodipodi:docname="tmp_logo.svg"><metadata
     id="metadata2991"><rdf:RDF><cc:Work
         rdf:about=""><dc:format>image/svg+xml</dc:format><dc:type
           rdf:resource="http://purl.org/dc/dcmitype/StillImage" /><dc:title></dc:title></cc:Work></rdf:RDF></metadata><defs
     id="defs2989"><clipPath
       clipPathUnits="userSpaceOnUse"
       id="clipPath8579"><path
         d="m 0,4825 464.996,0 0,-847 L 0,3978 0,4825 z"
         id="path8581"
         inkscape:connector-curvature="0" /></clipPath><clipPath
       clipPathUnits="userSpaceOnUse"
       id="clipPath8601"><path
         d="m 0,6233 464.996,0 0,-1279 L 0,4954 0,6233 z"
         id="path8603"
         inkscape:connector-curvature="0" /></clipPath><clipPath
       clipPathUnits="userSpaceOnUse"
       id="clipPath14213"><path
         d="m 0,1659 464.996,0 0,-846 L 0,813 0,1659 z"
         id="path14215"
         inkscape:connector-curvature="0" /></clipPath><clipPath
       clipPathUnits="userSpaceOnUse"
       id="clipPath14235"><path
         d="m 0,3067 464.996,0 0,-1278 L 0,1789 0,3067 z"
         id="path14237"
         inkscape:connector-curvature="0" /></clipPath></defs><sodipodi:namedview
     pagecolor="#ffffff"
     bordercolor="#666666"
     borderopacity="1"
     objecttolerance="10"
     gridtolerance="10"
     guidetolerance="10"
     inkscape:pageopacity="0"
     inkscape:pageshadow="2"
     inkscape:window-width="1600"
     inkscape:window-height="838"
     id="namedview2987"
     showgrid="false"
     fit-margin-top="2"
     fit-margin-bottom="2"
     fit-margin-left="2"
     fit-margin-right="2"
     inkscape:zoom="2.72"
     inkscape:cx="107.85342"
     inkscape:cy="-35.840124"
     inkscape:window-x="-8"
     inkscape:window-y="-8"
     inkscape:window-maximized="1"
     inkscape:current-layer="g2993" /><g
     id="g2993"
     inkscape:groupmode="layer"
     inkscape:label="CourtStreet sign 2"
     transform="matrix(1.25,0,0,-1.25,181.64019,915.66329)"><path
       inkscape:connector-curvature="0"
       id="path14505-5"
       style="fill:#000000;fill-opacity:1;fill-rule:evenodd;stroke:none"
       d="m 86.053645,603.2523 -2.113892,-3.69931 4.359901,0" /><path
       style="fill:#ff6600;fill-opacity:1;stroke:none"
       d="m 138.91085,736.97107 -34.675,-57.95 69.35,0 -6.175,10.325 c -0.62809,0.0312 -1.25796,0.12069 -1.875,0.25 -2.29897,0.48182 -4.43268,1.75544 -6.625,2.725 -3.98412,1.76201 -7.67934,4.67443 -11.85,5.6 -1.15742,0.2569 -2.36274,0.17239 -3.525,-0.05 -1.24339,-0.23791 -2.47319,-0.66811 -3.6,-1.35 -1.02651,-0.62118 -1.98317,-1.47167 -2.8,-2.45 -0.96557,-1.15648 -1.70307,-2.57111 -2.425,-3.975 l 0,6.375 c 0.35389,0.95803 1.23746,1.50622 1.95,2.1 1.07164,0.89301 2.23138,1.60227 3.45,2.15 1.24955,0.56163 2.57202,0.99591 3.9,1.125 1.41633,0.13768 2.85455,-0.0499 4.25,-0.375 1.13442,-0.26428 2.21349,-0.77345 3.3,-1.25 4.19023,-1.83785 8.13225,-4.49976 12.375,-6.15 0.27196,-0.10578 0.55006,-0.20198 0.825,-0.3 l -6.15,10.3 c -3.86765,1.72234 -7.48667,4.42406 -11.55,5.3 -1.15754,0.24961 -2.36263,0.16604 -3.525,-0.05 -1.24352,-0.23112 -2.47307,-0.66256 -3.6,-1.325 -1.02662,-0.60348 -1.98309,-1.42456 -2.8,-2.375 -0.96566,-1.12352 -1.70301,-2.48614 -2.425,-3.85 l 0,6.175 c 0.64573,0.67781 1.23738,1.44816 1.95,2.025 1.07175,0.86756 2.23126,1.59288 3.45,2.125 1.24969,0.54562 2.57188,0.94959 3.9,1.075 1.41647,0.13377 2.85441,-0.0342 4.25,-0.35 1.13454,-0.25674 2.21339,-0.78704 3.3,-1.25 1.2032,-0.51263 2.37487,-1.09913 3.55,-1.7 l -16.2,27.1 z"
       id="path38799"
       inkscape:connector-curvature="0" /><path
       style="fill:#00ccff;fill-opacity:1;stroke:#00ccff;stroke-width:0.40381002;stroke-linecap:round;stroke-linejoin:round;stroke-miterlimit:10;stroke-opacity:0;stroke-dasharray:none"
       d="m 155.11085,709.87107 3.5,-5.8 c 0.10255,-0.0457 0.19707,-0.10578 0.3,-0.15 2.19254,-0.94193 4.32582,-2.20692 6.625,-2.675 1.61218,-0.3282 3.2987,-0.2847 4.925,-0.075 1.17849,0.15189 2.33684,0.49342 3.45,0.975 1.12483,0.48661 2.18608,1.1716 3.2,1.925 0.85613,0.63614 1.62397,1.44539 2.425,2.175 l 0,5.925 c -0.72516,-1.23055 -1.50072,-2.43454 -2.425,-3.45 -0.8642,-0.94945 -1.82089,-1.79776 -2.875,-2.425 -1.23685,-0.73599 -2.58419,-1.25359 -3.95,-1.525 -1.0062,-0.19993 -2.06029,-0.2015 -3.075,-0.075 -1.11532,0.13905 -2.20683,0.52142 -3.275,0.925 -3.0249,1.1429 -5.90722,2.75806 -8.825,4.25 z"
       id="path38797"
       inkscape:connector-curvature="0" /><path
       style="fill:#00ccff;fill-opacity:1;stroke:#00ccff;stroke-width:0.40381002;stroke-linecap:round;stroke-linejoin:round;stroke-miterlimit:10;stroke-opacity:0;stroke-dasharray:none"
       d="m 164.76085,693.77107 2.65,-4.425 c 1.01277,-0.0504 2.04633,0.0168 3.05,0.15 1.17839,0.15636 2.33695,0.5043 3.45,1 1.12471,0.50089 2.18617,1.19949 3.2,1.975 0.85604,0.65481 1.62406,1.49899 2.425,2.25 l 0,6.075 c -0.72509,-1.26666 -1.5008,-2.47975 -2.425,-3.525 -0.86411,-0.97732 -1.821,-1.85434 -2.875,-2.5 -1.23674,-0.75758 -2.60933,-1.27064 -3.975,-1.55 -1.0061,-0.20581 -2.03539,-0.23022 -3.05,-0.1 -0.83124,0.10668 -1.64518,0.36306 -2.45,0.65 z"
       id="path8075-5"
       inkscape:connector-curvature="0" /><g
       style="fill:#00ccff;fill-opacity:1"
       id="g36407"
       transform="translate(-70.43604,-1.143171)"><path
         sodipodi:nodetypes="ccc"
         d="m 214.15291,591.2988 0,0 c -4.88272,0 -4.88272,0 0,0 z"
         style="fill:#00ccff;fill-opacity:1;fill-rule:evenodd;stroke:none"
         id="path7937-9"
         inkscape:connector-curvature="0" /></g><path
       inkscape:connector-curvature="0"
       id="path14505"
       style="fill:#ff4500;fill-opacity:1;fill-rule:evenodd;stroke:none"
       d="m 86.065979,602.90694 -1.719188,-3.00858 3.545825,0" /><path
       inkscape:connector-curvature="0"
       style="fill:#00ccff;fill-opacity:1;fill-rule:evenodd;stroke:none"
       d="m 91.835856,634.11026 -0.35,-0.125 -0.475,0 -0.375,-0.225 -0.35,-0.125 -0.35,-0.25 -0.375,-0.35 -0.35,-0.35 -0.25,-0.25 -0.125,-0.35 -0.1,-0.375 -0.125,-0.35 0,-0.725 0.125,-0.35 0.1,-0.5 0,-0.1 0.125,-0.5 0.25,-0.225 0,-0.125 0.225,-0.35 0.125,-0.375 0.125,-0.225 0.25,-0.375 0.225,-0.35 -0.35,-0.25 -0.25,-0.35 -0.35,-0.25 -0.25,-0.35 -0.225,-0.25 -0.375,-0.35 0,-0.125 -0.225,-0.35 -0.125,-0.375 -0.25,-0.35 -0.125,-0.375 0,-0.35 -0.1,-0.475 0,-0.6 0,-0.85 0.1,-0.35 0.125,-0.375 0.125,-0.1 0.125,-0.375 0.225,-0.35 0.25,-0.25 0.35,-0.35 0.375,-0.25 0.225,-0.125 0.375,-0.1 0.35,-0.125 0.475,-0.125 0.5,-0.125 1.425,0 0.475,0.125 0.375,0.125 0.475,0.125 0.35,0.225 0.375,0.25 0.35,0.225 0.85,-1.55 1.325,0.725 -1.1,1.675 1.8,1.8 -1.075,0.85 -1.425,-1.45 -3.25,5.15 0.25,0.25 0.35,0.25 0.35,0.225 0.25,0.25 0.35,0.225 0.25,0.25 0.25,0.25 0.35,0.35 0.25,0.25 0.225,0.35 0.125,0.125 0.125,0.35 0.125,0.375 0.1,0.35 0,0.85 -0.1,0.475 -0.125,0.35 -0.125,0.25 -0.25,0.35 -0.225,0.25 -0.125,0.125 -0.35,0.225 -0.375,0.25 -0.35,0.125 -0.475,0.1 -0.5,0 -0.475,0.125 -0.125,0 z m 0.125,-1.325 0.125,0 0.475,-0.1 0.375,-0.125 0.35,-0.25 0.125,-0.125 0.225,-0.225 0.125,-0.375 0,-0.95 -0.125,-0.25 -0.1,-0.35 -0.25,-0.35 -0.25,-0.25 -0.225,-0.35 -0.375,-0.375 -0.35,-0.225 -0.725,-0.5 0,0.125 -0.225,0.375 -0.25,0.35 -0.125,0.25 -0.125,0.225 -0.225,0.375 -0.125,0.35 0,0.125 -0.125,0.35 0,0.725 0.125,0.35 0.125,0.375 0.225,0.35 0.125,0 0.375,0.25 0.35,0.125 0.475,0.1 z m -1.075,-6.825 3.35,-5.275 -0.35,-0.25 -0.35,-0.25 -0.375,-0.225 -0.475,-0.125 -0.95,0 -0.85,0 -0.475,0.25 -0.375,0.225 -0.225,0.25 -0.125,0.125 -0.25,0.225 -0.1,0.375 -0.125,0.35 -0.125,0.35 0,0.725 0.125,0.375 0.125,0.35 0.1,0.475 0.125,0.25 0.125,0.35 0.125,0.25 0.225,0.225 0.25,0.375 0.25,0.225 0.35,0.375 z"
       id="path38676"
       inkscape:export-filename="C:\Users\Public\Dropbox\www\carousel\imgs\other\sflogo.imgs.png"
       inkscape:export-xdpi="299.99374"
       inkscape:export-ydpi="299.99374" /><path
       inkscape:connector-curvature="0"
       style="fill:#00ccff;fill-opacity:1;fill-rule:evenodd;stroke:none"
       d="m 192.53586,638.78526 -2.4,-1.9 -5.175,-22.7 2.875,-0.35 3.6,17.75 3.6,-17.75 2.65,0.35 -5.15,24.6 z m -3.85,-21 2.75,-3 2.65,3 -5.4,0 z"
       id="path38666"
       inkscape:export-filename="C:\Users\Public\Dropbox\www\carousel\imgs\other\sflogo.imgs.png"
       inkscape:export-xdpi="299.99374"
       inkscape:export-ydpi="299.99374" /><path
       inkscape:connector-curvature="0"
       style="fill:#00ccff;fill-opacity:1;fill-rule:evenodd;stroke:none"
       d="m 171.76086,638.08526 0,-23.9 5.525,0 0.725,0.125 0.6,0.125 0.6,0.125 0.6,0.35 0.475,0.25 0.475,0.35 0.475,0.475 0.375,0.5 0.225,0.475 0.25,0.6 0.125,0.125 0.125,0.475 0.1,0.475 0.125,0.6 0.125,0.475 0.125,0.6 0.125,0.475 0.1,0.6 0,0.725 0.125,0.6 0,0.6 0.125,0.725 0,4.45 -0.125,0.6 0,1.2 -0.125,0.6 0,0.6 -0.1,0.475 -0.125,0.35 -0.125,0.725 -0.125,0.6 -0.225,0.6 -0.25,0.475 -0.25,0.6 -0.35,0.475 -0.35,0.5 -0.5,0.475 -0.475,0.35 -0.475,0.375 -0.6,0.225 -0.725,0.25 -0.6,0.125 -0.825,0 -5.175,0 z m 2.775,-2.4 2.275,0 0.6,-0.125 0.6,-0.125 0.6,-0.25 0.475,-0.35 0.35,-0.475 0.375,-0.475 0,-0.125 0.125,-0.475 0.1,-0.5 0.125,-0.6 0.125,-0.6 0.125,-0.6 0,-1.3 0.125,-0.85 0,-4.925 -0.125,-0.725 0,-1.3 -0.125,-0.6 0,-0.725 -0.125,-0.475 -0.125,-0.6 -0.1,-0.5 -0.125,-0.475 -0.125,-0.125 -0.25,-0.6 -0.35,-0.35 -0.475,-0.35 -0.6,-0.25 -0.6,-0.25 -2.875,0 0,19.1 z"
       id="path38660"
       inkscape:export-filename="C:\Users\Public\Dropbox\www\carousel\imgs\other\sflogo.imgs.png"
       inkscape:export-xdpi="299.99374"
       inkscape:export-ydpi="299.99374" /><path
       inkscape:connector-curvature="0"
       style="fill:#00ccff;fill-opacity:1;fill-rule:evenodd;stroke:none"
       d="m 160.23586,638.08526 0,-11.9 -1.2,0 -0.95,-2.4 2.15,0 0,-9.6 8.65,0 0,2.4 -5.75,0 0,7.2 5.75,0 0,2.4 -5.875,0 0,9.5 6.225,0 -0.95,2.4 -8.05,0 z"
       id="path38656"
       inkscape:export-filename="C:\Users\Public\Dropbox\www\carousel\imgs\other\sflogo.imgs.png"
       inkscape:export-xdpi="299.99374"
       inkscape:export-ydpi="299.99374" /><path
       inkscape:connector-curvature="0"
       style="fill:#00ccff;fill-opacity:1;fill-rule:evenodd;stroke:none"
       d="m 154.73586,638.43526 -2.525,-17.4 -3.475,14.75 -2.65,-14.75 -3,17.275 -2.875,-0.35 4.675,-22.575 2.275,-2.025 1.8,13.075 2.05,-11.05 2.4,-2.025 3.825,24.6 -2.5,0.475 z"
       id="path38654"
       inkscape:export-filename="C:\Users\Public\Dropbox\www\carousel\imgs\other\sflogo.imgs.png"
       inkscape:export-xdpi="299.99374"
       inkscape:export-ydpi="299.99374" /><path
       inkscape:connector-curvature="0"
       style="fill:#00ccff;fill-opacity:1;fill-rule:evenodd;stroke:none"
       d="m 128.93586,638.08526 0,-23.9 2.75,0 0,21.5 0.725,0 0.35,0 0.85,-0.125 0.6,-0.125 0.475,-0.35 0.475,-0.375 0,-0.125 0.25,-0.35 0.225,-0.475 0.125,-0.6 0.125,-0.6 0,-1.575 0,-1.8 -0.125,-0.7 -0.125,-0.5 -0.1,-0.475 -0.25,-0.35 -0.125,-0.125 -0.475,-0.35 -0.475,-0.25 -0.725,-0.125 -0.85,-0.125 -0.6,0 4.8,-12.475 2.3,0.725 -3.725,9.6 0.35,0.125 0,0.125 0.725,0.225 0.125,0.125 0.475,0.35 0.6,0.5 0.125,0.35 0.225,0.475 0.25,0.6 0.25,0.725 0.1,0.475 0.125,0.6 0,0.6 0.125,0.6 0,1.675 -0.125,0.85 -0.125,0.725 0,0.6 -0.225,0.6 -0.125,0.6 -0.25,0.475 -0.1,0.475 -0.375,0.375 -0.225,0.35 -0.25,0.125 -0.35,0.35 -0.6,0.375 -0.6,0.225 -0.6,0.125 -0.725,0.125 -0.725,0.125 -0.85,0 -3.7,0 z"
       id="path38646"
       inkscape:export-filename="C:\Users\Public\Dropbox\www\carousel\imgs\other\sflogo.imgs.png"
       inkscape:export-xdpi="299.99374"
       inkscape:export-ydpi="299.99374" /><path
       inkscape:connector-curvature="0"
       style="fill:#00ccff;fill-opacity:1;fill-rule:evenodd;stroke:none"
       d="m 117.16086,638.08526 0,-11.9 -1.2,0 -0.95,-2.4 2.15,0 0,-9.6 8.65,0 0,2.4 -5.775,0 0,7.2 5.775,0 0,2.4 -5.875,0 0,9.5 6.225,0 -0.95,2.4 -8.05,0 z"
       id="path38642"
       inkscape:export-filename="C:\Users\Public\Dropbox\www\carousel\imgs\other\sflogo.imgs.png"
       inkscape:export-xdpi="299.99374"
       inkscape:export-ydpi="299.99374" /><path
       inkscape:connector-curvature="0"
       style="fill:#00ccff;fill-opacity:1;fill-rule:evenodd;stroke:none"
       d="m 105.28586,638.08526 0,-11.9 -1.325,0 -0.95,-2.4 2.275,0 0,-9.475 2.75,0 0,9.475 4.8,0 0,2.4 -4.8,0 0,9.5 6.125,0 -0.95,2.4 -7.925,0 z"
       id="path38640"
       inkscape:export-filename="C:\Users\Public\Dropbox\www\carousel\imgs\other\sflogo.imgs.png"
       inkscape:export-xdpi="299.99374"
       inkscape:export-ydpi="299.99374" /><path
       inkscape:connector-curvature="0"
       style="fill:#00ccff;fill-opacity:1;fill-rule:evenodd;stroke:none"
       d="m 196.36086,670.48526 -6.475,-13.8 6.725,-11.525 2.275,1.075 -6.25,10.45 6.125,12.95 -2.4,0.85 z m -9.475,-0.725 0,-23.775 2.65,0 0,23.775 -2.65,0 z"
       id="path38638"
       inkscape:export-filename="C:\Users\Public\Dropbox\www\carousel\imgs\other\sflogo.imgs.png"
       inkscape:export-xdpi="299.99374"
       inkscape:export-ydpi="299.99374" /><path
       inkscape:connector-curvature="0"
       style="fill:#00ccff;fill-opacity:1;fill-rule:evenodd;stroke:none"
       d="m 180.16086,670.23526 -0.825,-0.125 -0.725,-0.125 -0.6,-0.225 -0.6,-0.25 -0.475,-0.35 -0.5,-0.375 -0.35,-0.475 -0.25,-0.35 -0.35,-0.475 -0.25,-0.6 -0.225,-0.5 -0.25,-0.6 -0.125,-0.6 -0.225,-0.6 0,-0.6 -0.125,-0.1 0,-0.5 -0.125,-0.475 0,-1.2 -0.125,-0.6 0,-1.925 -0.1,-0.7 0,-1.325 0.1,-0.725 0,-1.8 0.125,-0.6 0,-0.6 0.125,-0.6 0,-0.475 0.125,-0.6 0.125,-0.475 0.1,-0.725 0.125,-0.6 0.25,-0.475 0.225,-0.6 0.375,-0.5 0.225,-0.6 0.375,-0.475 0.35,-0.35 0.475,-0.475 0.6,-0.375 0.6,-0.225 0.6,-0.125 0.725,-0.125 1.8,0 0.725,0.125 0.6,0.225 0.6,0.25 0.475,0.35 0.475,0.375 -1.2,2.75 -0.225,-0.475 -0.125,-0.25 -0.475,-0.475 -0.475,-0.35 -0.6,-0.125 -0.725,-0.125 -0.6,0 -0.6,0.25 -0.6,0.225 -0.475,0.375 -0.25,0.35 -0.35,0.6 -0.25,0.6 -0.125,0.6 -0.125,0.25 -0.1,0.475 0,0.6 -0.125,0.6 0,9.85 0.125,0.7 0.1,0.6 0.125,0.6 0.125,0.5 0.125,0.475 0.125,0.475 0.225,0.35 0.375,0.5 0.35,0.35 0.6,0.35 0.6,0.125 0.725,0.125 0.125,0 0.7,-0.125 0.6,-0.225 0.5,-0.375 0.475,-0.475 0.225,-0.475 1.2,2.625 -0.35,0.375 -0.25,0.125 -0.475,0.35 -0.6,0.25 -0.725,0.1 -0.7,0.125 -0.725,0.125 -0.25,0 z"
       id="path38634"
       inkscape:export-filename="C:\Users\Public\Dropbox\www\carousel\imgs\other\sflogo.imgs.png"
       inkscape:export-xdpi="299.99374"
       inkscape:export-ydpi="299.99374" /><path
       inkscape:connector-curvature="0"
       style="fill:#00ccff;fill-opacity:1;fill-rule:evenodd;stroke:none"
       d="m 167.68586,669.88526 0,-23.9 2.75,0 0,23.9 -2.75,0 z"
       id="path38628"
       inkscape:export-filename="C:\Users\Public\Dropbox\www\carousel\imgs\other\sflogo.imgs.png"
       inkscape:export-xdpi="299.99374"
       inkscape:export-ydpi="299.99374" /><path
       inkscape:connector-curvature="0"
       style="fill:#00ccff;fill-opacity:1;fill-rule:evenodd;stroke:none"
       d="m 162.16086,670.11026 -2.4,-17.275 -3.6,14.65 -2.625,-14.65 -3,17.15 -2.9,-0.225 4.7,-22.675 2.4,-1.925 1.8,13.075 1.9,-11.15 2.4,-1.925 3.975,24.6 -2.65,0.35 z"
       id="path38626"
       inkscape:export-filename="C:\Users\Public\Dropbox\www\carousel\imgs\other\sflogo.imgs.png"
       inkscape:export-xdpi="299.99374"
       inkscape:export-ydpi="299.99374" /><path
       style="fill:#00ccff;fill-opacity:1;fill-rule:evenodd;stroke:none"
       d="m 145.00585,669.87563 -7.92,0 0,-12 -1.2,0 -0.96,-2.4 2.16,0 0,-9.48 8.64,0 0,2.4 -5.76,0 0,7.08 5.76,0 0,2.4 -5.88,0 0,9.48 6.24,0"
       id="path38618"
       inkscape:connector-curvature="0"
       inkscape:export-filename="C:\Users\Public\Dropbox\www\carousel\imgs\other\sflogo.imgs.png"
       inkscape:export-xdpi="299.99374"
       inkscape:export-ydpi="299.99374" /><path
       inkscape:connector-curvature="0"
       style="fill:#00ccff;fill-opacity:1;fill-rule:evenodd;stroke:none"
       d="m 128.93586,670.23526 -0.725,-0.125 -0.725,-0.125 -0.6,-0.225 -0.6,-0.25 -0.6,-0.35 -0.35,-0.375 -0.5,-0.475 -0.225,-0.35 -0.375,-0.475 -0.225,-0.5 -0.25,-0.6 -0.225,-0.6 -0.125,-0.6 -0.25,-0.6 -0.125,-0.6 0,-0.6 -0.1,-0.6 0,-1.075 -0.125,-0.6 0,-6 0.125,-0.6 0,-1.2 0.1,-0.6 0,-0.475 0.125,-0.6 0.125,-0.475 0.125,-0.725 0.225,-0.6 0.125,-0.475 0.375,-0.6 0.225,-0.475 0.25,-0.6 0.35,-0.5 0.475,-0.35 0.5,-0.475 0.475,-0.375 0.6,-0.225 0.6,-0.125 0.725,-0.125 0.7,-0.125 0.375,0 0.825,0.125 0.6,0.125 0.725,0.25 0.475,0.225 0.5,0.375 0.225,0.35 0,0.95 0,10.1 -4.075,0 -1.075,-2.4 2.275,0 0,-7.45 -0.725,-0.125 -0.6,0 -0.6,0.125 -0.6,0.35 -0.475,0.375 -0.35,0.475 -0.25,0.475 -0.35,0.6 -0.125,0.6 0,0.25 -0.125,0.475 -0.125,0.6 0,1.325 -0.125,0.725 0,0.35 0.125,0.475 0,5.175 -0.125,0.475 0,0.475 0.125,0.725 0,0.725 0.125,0.6 0.125,0.6 0,0.6 0.225,0.475 0.125,0.6 0.125,0.35 0.25,0.475 0.35,0.5 0.35,0.35 0.6,0.35 0.6,0.125 0.725,0.125 0.125,-0.125 0.725,0 0.6,-0.225 0.475,-0.375 0.475,-0.6 0.375,-0.35 1.075,2.625 -0.475,0.375 -0.125,0 -0.6,0.35 -0.6,0.375 -0.725,0.1 -0.6,0.125 -0.725,0.125 -0.225,0 z"
       id="path38616"
       inkscape:export-filename="C:\Users\Public\Dropbox\www\carousel\imgs\other\sflogo.imgs.png"
       inkscape:export-xdpi="299.99374"
       inkscape:export-ydpi="299.99374" /><path
       inkscape:connector-curvature="0"
       style="fill:#00ccff;fill-opacity:1;fill-rule:evenodd;stroke:none"
       d="m 108.63586,669.76026 0,-23.775 6.25,0 0.725,0.125 0.6,0.25 0.475,0.225 0.6,0.25 0.35,0.35 0.5,0.5 0.35,0.475 0.25,0.475 0.225,0.6 0.125,0.25 0.125,0.35 0.125,0.6 0.1,0.475 0.125,0.475 0.125,0.6 0.125,0.6 0.125,0.6 0,0.6 0.1,0.6 0,0.725 0.125,0.6 0,5.175 -0.125,0.6 0,0.6 -0.1,0.475 0,0.6 -0.125,0.475 0,0.475 -0.25,0.6 -0.125,0.6 -0.225,0.6 -0.25,0.6 -0.225,0.475 -0.375,0.5 -0.35,0.475 0,0.125 -0.475,0.35 -0.5,0.475 -0.475,0.25 -0.6,0.35 -0.6,0.125 -0.725,0.125 -0.825,0 -5.175,0 z m 2.9,-2.4 2.15,0 0.6,0 0.6,-0.25 0.6,-0.225 0.475,-0.25 0.375,-0.475 0.35,-0.6 0,-0.125 0.25,-0.475 0.1,-0.475 0.125,-0.6 0,-0.5 0.125,-0.7 0,-0.6 0.125,-0.725 0,-6.375 -0.125,-0.7 0,-1.325 -0.125,-0.6 -0.125,-0.6 -0.1,-0.475 -0.125,-0.5 -0.125,-0.475 -0.125,-0.225 -0.225,-0.5 -0.375,-0.475 -0.475,-0.35 -0.6,-0.25 -0.6,-0.125 -0.725,-0.1 -2.025,0 0,19.075 z"
       id="path38610"
       inkscape:export-filename="C:\Users\Public\Dropbox\www\carousel\imgs\other\sflogo.imgs.png"
       inkscape:export-xdpi="299.99374"
       inkscape:export-ydpi="299.99374" /><path
       inkscape:connector-curvature="0"
       style="fill:#00ccff;fill-opacity:1;fill-rule:evenodd;stroke:none"
       d="m 97.135856,669.88526 0,-12 -1.2,0 -0.975,-2.4 2.175,0 0,-9.5 8.625004,0 0,2.4 -5.75,0 0,7.1 5.75,0 0,2.4 -5.75,0 0,9.475 6.125,0 -0.975,2.525 -8.025004,0 z"
       id="path38606"
       inkscape:export-filename="C:\Users\Public\Dropbox\www\carousel\imgs\other\sflogo.imgs.png"
       inkscape:export-xdpi="299.99374"
       inkscape:export-ydpi="299.99374" /><path
       style="fill:#00ccff;fill-opacity:1;fill-rule:evenodd;stroke:none"
       d="m 92.20585,670.59563 -2.52,-0.84 -0.12,0 -0.72,-0.36 -0.6,-0.24 -0.6,-0.36 -0.6,-0.36 -0.36,-0.48 -0.48,-0.48 -0.36,-0.36 -0.36,-0.6 -0.24,-0.48 -0.12,-0.6 -0.24,-0.6 0,-0.72 0.12,-0.6 0.12,-0.6 0.24,-0.6 0.24,-0.48 4.44,-8.76 0.24,-0.48 0.12,-0.48 0,-0.96 -0.12,-0.6 -0.24,-0.48 -0.36,-0.6 -0.36,-0.36 -0.48,-0.36 -0.72,-0.24 -0.6,-0.24 -2.52,-0.72 1.08,-2.28 2.52,0.84 0.6,0.12 0.6,0.36 0.6,0.36 0.48,0.36 0.6,0.36 0.48,0.48 0.36,0.48 0.36,0.6 0.24,0.48 0.24,0.6 0.12,0.6 0,0.6 0,0.6 -0.12,0.6 -0.24,0.6 -0.24,0.6 -4.44,8.76 -0.24,0.36 -0.12,0.6 -0.12,0.6 0,0.36 0.24,0.48 0.24,0.6 0.24,0.48 0.48,0.36 0.48,0.36 0.6,0.36 0.6,0.24 2.64,0.96"
       id="path38604"
       inkscape:connector-curvature="0"
       inkscape:export-filename="C:\Users\Public\Dropbox\www\carousel\imgs\other\sflogo.imgs.png"
       inkscape:export-xdpi="299.99374"
       inkscape:export-ydpi="299.99374" /><path
       inkscape:connector-curvature="0"
       style="fill:#ff4500;fill-opacity:1;fill-rule:evenodd;stroke:none"
       d="m 94.985856,606.23526 -0.975,-0.65 -1.825,-7.3 1.075,-0.225 0.325,1.4 0.975,4.425 1.275,-5.825 0.975,0.225 -1.825,7.95 z m -1.4,-6.775 0.975,-1.075 0.95,1.075 -1.925,0 z"
       id="path14577"
       inkscape:export-filename="C:\Users\Public\Dropbox\www\carousel\imgs\other\sflogo.imgs.png"
       inkscape:export-xdpi="299.99374"
       inkscape:export-ydpi="299.99374" /><path
       inkscape:connector-curvature="0"
       style="fill:#ff4500;fill-opacity:1;fill-rule:evenodd;stroke:none"
       d="m 103.91086,606.03526 0,-7.75 0.95,0 0,6.975 0.45,0 0.2,-0.1 0.325,0 0.1,-0.1 0.225,-0.1 0,-0.125 0.1,-0.1 0,-0.1 0.125,-0.225 0,-0.75 0,-0.975 -0.125,-0.1 -0.1,-0.1 0,-0.125 -0.225,-0.1 -0.2,0 -0.225,-0.1 -0.525,0 1.7,-4.1 0.875,0.225 -1.3,3.125 0.125,0.1 0.2,0.1 0.1,0 0.125,0.125 0.2,0.2 0.125,0.1 0.1,0.125 0.1,0.2 0,0.225 0.125,0.225 0,1.6 -0.125,0.225 0,0.2 -0.1,0.125 0,0.2 -0.1,0.1 -0.125,0.125 -0.1,0.1 0,0.1 -0.225,0.125 -0.2,0.1 -0.225,0.1 -0.2,0 -0.225,0.125 -0.325,0 -0.325,0 -1.275,0 z"
       id="path14583"
       inkscape:export-filename="C:\Users\Public\Dropbox\www\carousel\imgs\other\sflogo.imgs.png"
       inkscape:export-xdpi="299.99374"
       inkscape:export-ydpi="299.99374" /><path
       inkscape:connector-curvature="0"
       style="fill:#ff4500;fill-opacity:1;fill-rule:evenodd;stroke:none"
       d="m 116.81086,606.13526 c -0.31453,0.0276 -0.64908,-0.0351 -0.9,-0.15 -0.25092,-0.11497 -0.46095,-0.23958 -0.6,-0.475 -0.0696,-0.11772 -0.12823,-0.14418 -0.125,-0.15 -0.36397,-0.44671 -0.45441,-1.19616 -0.525,-1.6 -0.0713,-0.40808 -0.15353,-0.25799 -0.175,-0.775 -0.0215,-0.51701 -0.0801,-1.80063 0.05,-2.35 0.13011,-0.54937 0.0899,-0.62988 0.25,-0.925 0.1601,-0.29512 0.22794,-0.60183 0.35,-0.8 0.0256,-0.0416 0.0605,-0.0584 0.075,-0.075 0.003,-0.003 -0.003,-0.0226 0,-0.025 -0.24125,-0.15108 0.2839,-0.28522 0.525,-0.475 0.24623,-0.19383 0.72528,-0.11358 1.025,-0.225 0.29972,-0.11143 0.54444,0.096 0.8,0.125 0.25556,0.029 0.48994,0.21426 0.575,0.325 0.0851,0.11074 0.0345,0.0345 0.05,0.05 l -0.3,0.85 c -0.0737,-0.21865 -0.19591,-0.25778 -0.4,-0.45 -0.15103,-0.14223 -0.3764,-0.1117 -0.65,-0.1 -0.0104,0.007 -0.009,0.0151 -0.025,0.025 -0.0883,0.0515 -0.2072,0.0481 -0.325,0.05 0.0845,-0.0339 0.13655,-0.0568 0.2,-0.075 -0.0529,-2.7e-4 -0.0969,0.006 -0.15,0 -0.18982,-0.0204 -0.45417,-0.004 -0.7,0 0.19362,0.0449 0.42401,0.0746 0.625,0.075 -0.24847,0.10156 -0.5325,0.27373 -0.6,0.425 -0.14355,0.32167 -0.24897,0.58267 -0.25,0.85 -7.2e-4,0.26733 -0.11448,0.0608 -0.1,0.6 0.0145,0.53918 -0.12467,1.98921 0,2.6 0.12467,0.6108 0.0658,0.75821 0.2,1.025 0.13411,0.2668 0.13232,0.41025 0.325,0.575 0.19269,0.16475 0.61547,0.33397 0.75,0.325 l -1.375,0 c 0.30141,0.002 0.97265,0.0536 1.375,0 0.0392,-0.006 0.0918,0.008 0.125,0 0.37361,-0.0875 0.566,-0.11702 0.7,-0.275 0.13399,-0.15798 0.12586,-0.42875 0.275,-0.275 0.14914,0.15375 0.35666,0.60839 0.3,0.875 -0.0567,0.26661 -0.46124,0.27905 -0.65,0.35 -0.18876,0.0709 -0.2783,0.0846 -0.425,0.075 l -0.3,0 z"
       id="path14587"
       inkscape:export-filename="C:\Users\Public\Dropbox\www\carousel\imgs\other\sflogo.imgs.png"
       inkscape:export-xdpi="299.99374"
       inkscape:export-ydpi="299.99374" /><path
       inkscape:connector-curvature="0"
       style="fill:#ff4500;fill-opacity:1;fill-rule:evenodd;stroke:none"
       d="m 125.93586,606.03526 0,-3.875 -0.425,0 -0.45,-0.75 0.875,0 0,-3.125 0.95,0 0,3.125 2.15,0 0,-3.125 0.975,0 0,7.75 -0.975,0 0,-3.875 -2.15,0 0,3.875 -0.95,0 z"
       id="path14593"
       inkscape:export-filename="C:\Users\Public\Dropbox\www\carousel\imgs\other\sflogo.imgs.png"
       inkscape:export-xdpi="299.99374"
       inkscape:export-ydpi="299.99374" /><path
       inkscape:connector-curvature="0"
       style="fill:#ff4500;fill-opacity:1;fill-rule:evenodd;stroke:none"
       d="m 137.96086,606.03526 0,-7.75 0.975,0 0,7.75 -0.975,0 z"
       id="path14599"
       inkscape:export-filename="C:\Users\Public\Dropbox\www\carousel\imgs\other\sflogo.imgs.png"
       inkscape:export-xdpi="299.99374"
       inkscape:export-ydpi="299.99374" /><path
       inkscape:connector-curvature="0"
       style="fill:#ff4500;fill-opacity:1;fill-rule:evenodd;stroke:none"
       d="m 146.88586,606.03526 -0.425,-0.775 0.95,0 0,-6.975 1.075,0 0,6.975 0.65,0 0.425,0.775 -2.675,0 z"
       id="path14601"
       inkscape:export-filename="C:\Users\Public\Dropbox\www\carousel\imgs\other\sflogo.imgs.png"
       inkscape:export-xdpi="299.99374"
       inkscape:export-ydpi="299.99374" /><path
       inkscape:connector-curvature="0"
       style="fill:#ff4500;fill-opacity:1;fill-rule:evenodd;stroke:none"
       d="m 157.31086,606.03526 0,-3.875 -0.55,0 -0.325,-0.75 0.875,0 0,-3.125 3.1,0 0,0.75 -2.15,0 0,2.375 2.15,0 0,0.75 -2.15,0 0,3.1 2.275,0 -0.425,0.775 -2.8,0 z"
       id="path14603"
       inkscape:export-filename="C:\Users\Public\Dropbox\www\carousel\imgs\other\sflogo.imgs.png"
       inkscape:export-xdpi="299.99374"
       inkscape:export-ydpi="299.99374" /><path
       inkscape:connector-curvature="0"
       style="fill:#ff4500;fill-opacity:1;fill-rule:evenodd;stroke:none"
       d="m 169.56086,606.13526 -0.225,-0.1 -0.2,0 -0.225,-0.125 -0.225,-0.1 -0.1,-0.1 -0.225,-0.225 -0.1,-0.1 -0.1,-0.125 -0.1,-0.2 0,-0.225 -0.125,-0.1 -0.1,-0.225 0,-0.2 -0.1,-0.225 0,-0.85 -0.125,-0.225 0,-1.725 0.125,-0.2 0,-0.75 0.1,-0.225 0,-0.325 0.1,-0.2 0.125,-0.225 0.1,-0.225 0.1,-0.1 0.1,-0.2 0.125,-0.125 0.1,-0.2 0.225,-0.125 0.2,-0.1 0.225,-0.1 0.425,0 0.325,-0.125 0.325,0.125 0.2,0 0.325,0.1 0.225,0 0.1,0.225 0.225,0.1 -0.425,0.85 -0.125,-0.2 -0.2,-0.225 -0.225,-0.1 -0.425,0 -0.425,0 -0.225,0.1 -0.2,0.1 -0.125,0.125 -0.1,0.2 -0.1,0.225 0,0.225 -0.125,0.2 0,3.975 0.125,0.225 0,0.2 0.1,0.125 0,0.1 0.1,0.1 0.125,0.225 0.2,0.1 0.1,0.1 0.225,0.125 0.325,0 0.325,-0.125 0.2,0 0.225,-0.1 0.1,-0.2 0.125,-0.125 0.425,0.875 -0.125,0.1 -0.1,0 -0.2,0.1 -0.225,0.125 -0.225,0.1 -0.3,0 -0.225,0 -0.425,0 z"
       id="path14605"
       inkscape:export-filename="C:\Users\Public\Dropbox\www\carousel\imgs\other\sflogo.imgs.png"
       inkscape:export-xdpi="299.99374"
       inkscape:export-ydpi="299.99374" /><path
       inkscape:connector-curvature="0"
       style="fill:#ff4500;fill-opacity:1;fill-rule:evenodd;stroke:none"
       d="m 178.91086,606.03526 -0.45,-0.775 0.975,0 0,-6.975 1.075,0 0,6.975 0.65,0 0.425,0.775 -2.675,0 z"
       id="path14611"
       inkscape:export-filename="C:\Users\Public\Dropbox\www\carousel\imgs\other\sflogo.imgs.png"
       inkscape:export-xdpi="299.99374"
       inkscape:export-ydpi="299.99374" /><path
       inkscape:connector-curvature="0"
       style="fill:#ff4500;fill-opacity:1;fill-rule:evenodd;stroke:none"
       d="m 191.26086,606.23526 -0.85,-0.2 -0.125,0 -0.2,-0.125 -0.225,-0.1 -0.225,-0.1 -0.2,-0.125 -0.1,-0.2 -0.225,-0.125 -0.1,-0.1 -0.125,-0.2 -0.1,-0.225 -0.1,-0.1 0,-0.45 0,-0.425 0.1,-0.2 0.1,-0.125 1.625,-2.9 0.1,-0.1 0,-0.65 -0.1,-0.2 -0.1,-0.225 -0.125,-0.1 -0.2,-0.125 -0.225,-0.1 -0.225,-0.1 -0.95,-0.225 0.425,-0.65 0.85,0.225 0.225,0.1 0.225,0 0.2,0.125 0.225,0.2 0.2,0.125 0.225,0.1 0.1,0.2 0.125,0.125 0.1,0.2 0.1,0.225 0,0.325 0,0.425 -0.1,0.225 -0.1,0.2 -1.625,2.8 -0.1,0.1 0,0.225 -0.125,0.2 0.125,0.125 0,0.2 0.1,0.125 0.1,0.2 0.125,0.125 0.2,0.1 0.225,0.1 0.2,0.1 0.975,0.325 -0.425,0.65 z"
       id="path14613"
       inkscape:export-filename="C:\Users\Public\Dropbox\www\carousel\imgs\other\sflogo.imgs.png"
       inkscape:export-xdpi="299.99374"
       inkscape:export-ydpi="299.99374" /><path
       inkscape:connector-curvature="0"
       id="path14615"
       style="fill:#ff0000;stroke:#000000;stroke-width:1.18194163;stroke-linecap:round;stroke-linejoin:round;stroke-miterlimit:10;stroke-opacity:1;stroke-dasharray:none"
       d="m 82.627604,609.67624 118.516506,0" /><path
       inkscape:connector-curvature="0"
       id="path14977"
       style="fill:#ff0000;stroke:#000000;stroke-width:1.18194163;stroke-linecap:round;stroke-linejoin:round;stroke-miterlimit:10;stroke-opacity:1;stroke-dasharray:none"
       d="m 82.627604,594.5259 118.516506,0" /><g
       id="g22038"><path
         d="m 197.06097,603.21705 -2.11389,-3.69931 4.3599,0"
         style="fill:#000000;fill-opacity:1;fill-rule:evenodd;stroke:none"
         id="path14505-5-4"
         inkscape:connector-curvature="0" /><path
         d="m 197.07331,602.87169 -1.71919,-3.00858 3.54582,0"
         style="fill:#ff4500;fill-opacity:1;fill-rule:evenodd;stroke:none"
         id="path14505-51"
         inkscape:connector-curvature="0" /></g><rect
       style="fill:#2c3e50;fill-opacity:1;stroke:none"
       id="rect34634"
       width="50"
       height="29.044117"
       x="-134.19118"
       y="30.38999"
       transform="matrix(0.8,0,0,-0.8,81.685856,740.38526)" /><g
       id="g34709"
       transform="matrix(0.39095569,0,0,0.39095569,-87.527067,445.16914)"><path
         inkscape:connector-curvature="0"
         id="path38799-5"
         d="m -109.03715,730.93063 -34.675,-57.95 69.349997,0 -6.175,10.325 c -0.62809,0.0312 -1.25796,0.12069 -1.875,0.25 -2.29897,0.48182 -4.43268,1.75544 -6.625,2.725 -3.98412,1.76201 -7.67934,4.67443 -11.849997,5.6 -1.15742,0.2569 -2.36274,0.17239 -3.525,-0.05 -1.24339,-0.23791 -2.47319,-0.66811 -3.6,-1.35 -1.02651,-0.62118 -1.98317,-1.47167 -2.8,-2.45 -0.96557,-1.15648 -1.70307,-2.57111 -2.425,-3.975 l 0,6.375 c 0.35389,0.95803 1.23746,1.50622 1.95,2.1 1.07164,0.89301 2.23138,1.60227 3.45,2.15 1.24955,0.56163 2.57202,0.99591 3.9,1.125 1.41633,0.13768 2.85455,-0.0499 4.249997,-0.375 1.13442,-0.26428 2.21349,-0.77345 3.3,-1.25 4.19023,-1.83785 8.13225,-4.49976 12.375,-6.15 0.27196,-0.10578 0.55006,-0.20198 0.825,-0.3 l -6.15,10.3 c -3.86765,1.72234 -7.48667,4.42406 -11.549997,5.3 -1.15754,0.24961 -2.36263,0.16604 -3.525,-0.05 -1.24352,-0.23112 -2.47307,-0.66256 -3.6,-1.325 -1.02662,-0.60348 -1.98309,-1.42456 -2.8,-2.375 -0.96566,-1.12352 -1.70301,-2.48614 -2.425,-3.85 l 0,6.175 c 0.64573,0.67781 1.23738,1.44816 1.95,2.025 1.07175,0.86756 2.23126,1.59288 3.45,2.125 1.24969,0.54562 2.57188,0.94959 3.9,1.075 1.41647,0.13377 2.85441,-0.0342 4.249997,-0.35 1.13454,-0.25674 2.21339,-0.78704 3.3,-1.25 1.2032,-0.51263 2.37487,-1.09913 3.55,-1.7 l -16.199997,27.1 z"
         style="fill:#ff6600;fill-opacity:1;stroke:none" /><path
         inkscape:connector-curvature="0"
         id="path38797-4"
         d="m -92.837153,703.83063 3.5,-5.8 c 0.10255,-0.0457 0.19707,-0.10578 0.3,-0.15 2.19254,-0.94193 4.32582,-2.20692 6.625,-2.675 1.61218,-0.3282 3.2987,-0.2847 4.925,-0.075 1.17849,0.15189 2.33684,0.49342 3.45,0.975 1.12483,0.48661 2.18608,1.1716 3.2,1.925 0.85613,0.63614 1.62397,1.44539 2.425,2.175 l 0,5.925 c -0.72516,-1.23055 -1.50072,-2.43454 -2.425,-3.45 -0.8642,-0.94945 -1.82089,-1.79776 -2.875,-2.425 -1.23685,-0.73599 -2.58419,-1.25359 -3.95,-1.525 -1.0062,-0.19993 -2.06029,-0.2015 -3.075,-0.075 -1.11532,0.13905 -2.20683,0.52142 -3.275,0.925 -3.0249,1.1429 -5.90722,2.75806 -8.825,4.25 z"
         style="fill:#00ccff;fill-opacity:1;stroke:#00ccff;stroke-width:0.40381002;stroke-linecap:round;stroke-linejoin:round;stroke-miterlimit:10;stroke-opacity:0;stroke-dasharray:none" /><path
         inkscape:connector-curvature="0"
         id="path8075-5-3"
         d="m -83.187153,687.73063 2.65,-4.425 c 1.01277,-0.0504 2.04633,0.0168 3.05,0.15 1.17839,0.15636 2.33695,0.5043 3.45,1 1.12471,0.50089 2.18617,1.19949 3.2,1.975 0.85604,0.65481 1.62406,1.49899 2.425,2.25 l 0,6.075 c -0.72509,-1.26666 -1.5008,-2.47975 -2.425,-3.525 -0.86411,-0.97732 -1.821,-1.85434 -2.875,-2.5 -1.23674,-0.75758 -2.60933,-1.27064 -3.975,-1.55 -1.0061,-0.20581 -2.03539,-0.23022 -3.05,-0.1 -0.83124,0.10668 -1.64518,0.36306 -2.45,0.65 z"
         style="fill:#00ccff;fill-opacity:1;stroke:#00ccff;stroke-width:0.40381002;stroke-linecap:round;stroke-linejoin:round;stroke-miterlimit:10;stroke-opacity:0;stroke-dasharray:none" /></g></g></svg>