<?xml version="1.0" encoding="UTF-8" standalone="no"?>
<!-- Created with Inkscape (http://www.inkscape.org/) -->

<svg
   xmlns:dc="http://purl.org/dc/elements/1.1/"
   xmlns:cc="http://creativecommons.org/ns#"
   xmlns:rdf="http://www.w3.org/1999/02/22-rdf-syntax-ns#"
   xmlns:svg="http://www.w3.org/2000/svg"
   xmlns="http://www.w3.org/2000/svg"
   xmlns:sodipodi="http://sodipodi.sourceforge.net/DTD/sodipodi-0.dtd"
   xmlns:inkscape="http://www.inkscape.org/namespaces/inkscape"
   sodipodi:docname="New document 1"
   width="64"
   height="64"
   id="svg2"
   version="1.1"
   inkscape:version="0.48.4 r9939">
  <sodipodi:namedview
     id="base"
     pagecolor="#ffffff"
     bordercolor="#666666"
     borderopacity="1.0"
     inkscape:pageopacity="0.0"
     inkscape:pageshadow="2"
     inkscape:zoom="0.35"
     inkscape:cx="767.57375"
     inkscape:cy="-383.07126"
     inkscape:document-units="px"
     inkscape:current-layer="layer1"
     showgrid="false"
     inkscape:window-width="1600"
     inkscape:window-height="832"
     inkscape:window-x="-8"
     inkscape:window-y="-8"
     inkscape:window-maximized="1"
     fit-margin-top="0"
     fit-margin-left="0"
     fit-margin-right="0"
     fit-margin-bottom="0" />
  <defs
     id="defs4">
    <linearGradient
       id="linearGradient8607">
      <stop
         id="stop8609"
         offset="0"
         style="stop-color:#7f8c8d;stop-opacity:1;" />
      <stop
         id="stop8611"
         offset="1"
         style="stop-color:#7f8c8d;stop-opacity:0.44144145;" />
    </linearGradient>
    <filter
       inkscape:collect="always"
       id="filter6779"
       inkscape:label="Darken edges"
       inkscape:menu="Shadows and Glows"
       inkscape:menu-tooltip="Darken the edges with an inner blur"
       color-interpolation-filters="sRGB">
      <feGaussianBlur
         inkscape:collect="always"
         stdDeviation="2.8112155"
         id="feGaussianBlur6781"
         result="fbSourceGraphic" />
      <feColorMatrix
         result="fbSourceGraphicAlpha"
         in="fbSourceGraphic"
         values="0 0 0 -1 0 0 0 0 -1 0 0 0 0 -1 0 0 0 0 1 0"
         id="feColorMatrix6783" />
      <feGaussianBlur
         id="feGaussianBlur6785"
         stdDeviation="3"
         in="fbSourceGraphic"
         result="fbSourceGraphic" />
      <feColorMatrix
         result="fbSourceGraphicAlpha"
         in="fbSourceGraphic"
         values="0 0 0 -1 0 0 0 0 -1 0 0 0 0 -1 0 0 0 0 1 0"
         id="feColorMatrix6787" />
      <feGaussianBlur
         id="feGaussianBlur6789"
         result="result6"
         stdDeviation="1.5"
         in="fbSourceGraphic" />
      <feComposite
         id="feComposite6791"
         in2="result6"
         operator="atop"
         in="fbSourceGraphic"
         result="result8" />
      <feComposite
         id="feComposite6793"
         in2="fbSourceGraphicAlpha"
         in="result8"
         operator="atop"
         result="fbSourceGraphic" />
      <feColorMatrix
         result="fbSourceGraphicAlpha"
         in="fbSourceGraphic"
         values="0 0 0 -1 0 0 0 0 -1 0 0 0 0 -1 0 0 0 0 1 0"
         id="feColorMatrix6795" />
      <feGaussianBlur
         id="feGaussianBlur6797"
         result="result6"
         stdDeviation="1.5"
         in="fbSourceGraphic" />
      <feComposite
         id="feComposite6799"
         in2="result6"
         operator="atop"
         in="fbSourceGraphic"
         result="result8" />
      <feComposite
         id="feComposite6801"
         in2="fbSourceGraphicAlpha"
         in="result8"
         operator="atop"
         result="result9" />
    </filter>
  </defs>
  <metadata
     id="metadata7">
    <rdf:RDF>
      <cc:Work
         rdf:about="">
        <dc:format>image/svg+xml</dc:format>
        <dc:type
           rdf:resource="http://purl.org/dc/dcmitype/StillImage" />
        <dc:title></dc:title>
      </cc:Work>
    </rdf:RDF>
  </metadata>
  <g
     id="layer1"
     inkscape:groupmode="layer"
     inkscape:label="Layer 1"
     transform="translate(849.21458,-83.862347)">
    <g
       id="g24390"
       transform="translate(-231.42857,-148.57143)">
      <g
         id="g24387">
        <rect
           style="fill:none;stroke:none"
           id="rect24385"
           width="64"
           height="64"
           x="-617.78601"
           y="232.43378" />
      </g>
      <path
         d="m -585.78599,242.93468 c -11.87337,0 -21.5,9.62483 -21.5,21.49821 0,11.87517 9.62663,21.5 21.5,21.5 11.87338,0 21.5,-9.62483 21.5,-21.5 0,-11.87338 -9.62662,-21.49821 -21.5,-21.49821 z m 13.37749,29.66104 -5.21286,5.21375 -8.16284,-8.16194 -8.16104,8.16194 -5.21196,-5.21375 8.16195,-8.16194 -8.16284,-8.16014 5.21285,-5.21375 8.16104,8.16193 8.16283,-8.16193 5.21287,5.21375 -8.16195,8.16014 8.16195,8.16194 z"
         id="path4817-8"
         inkscape:connector-curvature="0"
         style="fill:#bdc3c7" />
    </g>
    <g
       id="g24381"
       transform="translate(34.285714,-37.142857)">
      <rect
         y="114.72701"
         x="-794.28571"
         height="64"
         width="64"
         id="rect24197"
         style="fill:none;stroke:none" />
      <path
         id="path4779-0-8"
         d="m -767.9276,120.60827 -3.15832,3.33333 -0.008,0 -0.0833,0.0876 -0.0334,0 -2.58332,2.73749 2.46667,-2.60001 0.0208,0 -9.21667,9.68751 -0.004,0.0458 -1.75834,1.85833 0,22.55415 c 0,2.45267 1.98683,4.44167 4.44167,4.44167 l 6.85832,0 c -1.34494,-1.00543 -2.51582,-2.20685 -3.46251,-3.55834 l -3.39581,0 c -0.49075,0 -0.89168,-0.39257 -0.89168,-0.88333 l 0,-22.02082 4.84168,0.12917 c 5.64743,0.61806 5.95832,-4.50417 5.95832,-4.50417 l 0.24168,-7.74999 14.72915,0 c 0.48749,0 0.8875,0.39693 0.8875,0.88333 l 0,12.96666 c 1.33296,0.80522 2.53004,1.78844 3.55834,2.9125 l 0,-15.87916 c 0,-2.45049 -1.99208,-4.44167 -4.44584,-4.44167 l -14.9625,0 z m 6.71666,17.68749 c -2.57237,0.002 -5.16159,0.83263 -7.34167,2.54584 -5.1632,4.0631 -6.05785,11.53877 -1.99583,16.70417 3.39826,4.32099 9.18155,5.641 14.00418,3.58332 l 9.22083,11.71666 5.03749,-3.96667 -9.25001,-11.75832 c 3.01197,-4.19369 3.03789,-10.02218 -0.31249,-14.28333 -2.34773,-2.98436 -5.83739,-4.54357 -9.3625,-4.54167 z m -0.1625,4.86251 c 2.14117,-0.0524 4.27891,0.87394 5.70417,2.6875 2.40368,3.05549 1.87306,7.47347 -1.17917,9.875 -3.05441,2.40152 -7.47347,1.87524 -9.87498,-1.17917 -2.40264,-3.05441 -1.87725,-7.47764 1.17498,-9.87917 1.2413,-0.9765 2.71,-1.46835 4.175,-1.50416 z"
         style="fill:#bdc3c7;stroke:none"
         inkscape:connector-curvature="0" />
    </g>
  </g>
</svg>
