<?xml version="1.0" encoding="UTF-8" standalone="no"?>
<!-- Generator: Adobe Illustrator 14.0.0, SVG Export Plug-In . SVG Version: 6.00 Build 43363)  -->

<svg
   xmlns:dc="http://purl.org/dc/elements/1.1/"
   xmlns:cc="http://creativecommons.org/ns#"
   xmlns:rdf="http://www.w3.org/1999/02/22-rdf-syntax-ns#"
   xmlns:svg="http://www.w3.org/2000/svg"
   xmlns="http://www.w3.org/2000/svg"
   xmlns:xlink="http://www.w3.org/1999/xlink"
   xmlns:sodipodi="http://sodipodi.sourceforge.net/DTD/sodipodi-0.dtd"
   xmlns:inkscape="http://www.inkscape.org/namespaces/inkscape"
   version="1.1"
   id="Layer_1"
   x="0px"
   y="0px"
   width="512px"
   height="512px"
   viewBox="0 0 512 512"
   style="enable-background:new 0 0 512 512;"
   xml:space="preserve"
   inkscape:version="0.48.4 r9939"
   sodipodi:docname="sflogo_white_bg.svg"><sodipodi:namedview
   pagecolor="#ffffff"
   bordercolor="#666666"
   borderopacity="1"
   objecttolerance="10"
   gridtolerance="10"
   guidetolerance="10"
   inkscape:pageopacity="0"
   inkscape:pageshadow="2"
   inkscape:window-width="1600"
   inkscape:window-height="832"
   id="namedview3013"
   showgrid="false"
   inkscape:zoom="0.4609375"
   inkscape:cx="-82.440678"
   inkscape:cy="256"
   inkscape:window-x="-8"
   inkscape:window-y="-8"
   inkscape:window-maximized="1"
   inkscape:current-layer="Layer_1" /><metadata
   id="metadata3017"><rdf:RDF><cc:Work
       rdf:about=""><dc:format>image/svg+xml</dc:format><dc:type
         rdf:resource="http://purl.org/dc/dcmitype/StillImage" /><dc:title></dc:title></cc:Work></rdf:RDF></metadata><defs
   id="defs3015"><linearGradient
   inkscape:collect="always"
   id="linearGradient6365"><stop
     style="stop-color:#2c3e50;stop-opacity:1;"
     offset="0"
     id="stop6367" /><stop
     style="stop-color:#2c3e50;stop-opacity:0;"
     offset="1"
     id="stop6369" /></linearGradient>
	
	

		
		
		
	<linearGradient
   inkscape:collect="always"
   xlink:href="#linearGradient6365"
   id="linearGradient6371"
   x1="-182.23729"
   y1="-117.15255"
   x2="334.10168"
   y2="449.08475"
   gradientUnits="userSpaceOnUse" /><linearGradient
   inkscape:collect="always"
   xlink:href="#linearGradient6365-5"
   id="linearGradient6371-4"
   x1="-182.23729"
   y1="-117.15255"
   x2="334.10168"
   y2="449.08475"
   gradientUnits="userSpaceOnUse" /><linearGradient
   inkscape:collect="always"
   id="linearGradient6365-5"><stop
     style="stop-color:#2c3e50;stop-opacity:1;"
     offset="0"
     id="stop6367-5" /><stop
     style="stop-color:#2c3e50;stop-opacity:0;"
     offset="1"
     id="stop6369-1" /></linearGradient><linearGradient
   inkscape:collect="always"
   xlink:href="#linearGradient6365-5"
   id="linearGradient6389"
   x1="-182.23729"
   y1="-117.15255"
   x2="334.10168"
   y2="449.08475"
   gradientUnits="userSpaceOnUse" /><linearGradient
   inkscape:collect="always"
   xlink:href="#linearGradient6365-5"
   id="linearGradient6397"
   x1="-182.23729"
   y1="-117.15255"
   x2="334.10168"
   y2="449.08475"
   gradientUnits="userSpaceOnUse" /><linearGradient
   inkscape:collect="always"
   xlink:href="#linearGradient6365-5"
   id="linearGradient6405"
   x1="-182.23729"
   y1="-117.15255"
   x2="334.10168"
   y2="449.08475"
   gradientUnits="userSpaceOnUse" /><linearGradient
   inkscape:collect="always"
   xlink:href="#linearGradient6365-5"
   id="linearGradient6413"
   x1="-182.23729"
   y1="-117.15255"
   x2="334.10168"
   y2="449.08475"
   gradientUnits="userSpaceOnUse" /><linearGradient
   inkscape:collect="always"
   xlink:href="#linearGradient6365-5"
   id="linearGradient6421"
   x1="-182.23729"
   y1="-117.15255"
   x2="334.10168"
   y2="449.08475"
   gradientUnits="userSpaceOnUse" /><linearGradient
   inkscape:collect="always"
   xlink:href="#linearGradient6365-5"
   id="linearGradient6429"
   x1="-182.23729"
   y1="-117.15255"
   x2="334.10168"
   y2="449.08475"
   gradientUnits="userSpaceOnUse" /><linearGradient
   inkscape:collect="always"
   xlink:href="#linearGradient6365-5"
   id="linearGradient6437"
   x1="-182.23729"
   y1="-117.15255"
   x2="334.10168"
   y2="449.08475"
   gradientUnits="userSpaceOnUse" /><linearGradient
   inkscape:collect="always"
   xlink:href="#linearGradient6365-5"
   id="linearGradient6445"
   x1="-182.23729"
   y1="-117.15255"
   x2="334.10168"
   y2="449.08475"
   gradientUnits="userSpaceOnUse" /><linearGradient
   inkscape:collect="always"
   xlink:href="#linearGradient6365-5"
   id="linearGradient6453"
   x1="-182.23729"
   y1="-117.15255"
   x2="334.10168"
   y2="449.08475"
   gradientUnits="userSpaceOnUse" /><linearGradient
   inkscape:collect="always"
   xlink:href="#linearGradient6365-5"
   id="linearGradient6461"
   x1="-182.23729"
   y1="-117.15255"
   x2="334.10168"
   y2="449.08475"
   gradientUnits="userSpaceOnUse" /><linearGradient
   inkscape:collect="always"
   xlink:href="#linearGradient6365-5"
   id="linearGradient6469"
   x1="-182.23729"
   y1="-117.15255"
   x2="334.10168"
   y2="449.08475"
   gradientUnits="userSpaceOnUse" /><linearGradient
   inkscape:collect="always"
   xlink:href="#linearGradient6365-5"
   id="linearGradient6477"
   x1="-182.23729"
   y1="-117.15255"
   x2="334.10168"
   y2="449.08475"
   gradientUnits="userSpaceOnUse" /><linearGradient
   inkscape:collect="always"
   xlink:href="#linearGradient6365-5"
   id="linearGradient6485"
   x1="-182.23729"
   y1="-117.15255"
   x2="334.10168"
   y2="449.08475"
   gradientUnits="userSpaceOnUse" /><linearGradient
   inkscape:collect="always"
   xlink:href="#linearGradient6365-5"
   id="linearGradient6493"
   x1="-182.23729"
   y1="-117.15255"
   x2="334.10168"
   y2="449.08475"
   gradientUnits="userSpaceOnUse" /><linearGradient
   inkscape:collect="always"
   xlink:href="#linearGradient6365-5"
   id="linearGradient6501"
   x1="-182.23729"
   y1="-117.15255"
   x2="334.10168"
   y2="449.08475"
   gradientUnits="userSpaceOnUse" /><linearGradient
   inkscape:collect="always"
   xlink:href="#linearGradient6365-5"
   id="linearGradient6509"
   x1="-182.23729"
   y1="-117.15255"
   x2="334.10168"
   y2="449.08475"
   gradientUnits="userSpaceOnUse" /><linearGradient
   inkscape:collect="always"
   xlink:href="#linearGradient6365-5"
   id="linearGradient6517"
   x1="-182.23729"
   y1="-117.15255"
   x2="334.10168"
   y2="449.08475"
   gradientUnits="userSpaceOnUse" /><linearGradient
   inkscape:collect="always"
   xlink:href="#linearGradient6365-5"
   id="linearGradient6525"
   x1="-182.23729"
   y1="-117.15255"
   x2="334.10168"
   y2="449.08475"
   gradientUnits="userSpaceOnUse" /><linearGradient
   inkscape:collect="always"
   xlink:href="#linearGradient6365-5"
   id="linearGradient6533"
   x1="-182.23729"
   y1="-117.15255"
   x2="334.10168"
   y2="449.08475"
   gradientUnits="userSpaceOnUse" /><linearGradient
   inkscape:collect="always"
   xlink:href="#linearGradient6365-5"
   id="linearGradient6541"
   x1="-182.23729"
   y1="-117.15255"
   x2="334.10168"
   y2="449.08475"
   gradientUnits="userSpaceOnUse" /><linearGradient
   inkscape:collect="always"
   xlink:href="#linearGradient6365-5"
   id="linearGradient6549"
   x1="-182.23729"
   y1="-117.15255"
   x2="334.10168"
   y2="449.08475"
   gradientUnits="userSpaceOnUse" /><linearGradient
   inkscape:collect="always"
   xlink:href="#linearGradient6365-5"
   id="linearGradient6557"
   x1="-182.23729"
   y1="-117.15255"
   x2="334.10168"
   y2="449.08475"
   gradientUnits="userSpaceOnUse" /><linearGradient
   inkscape:collect="always"
   xlink:href="#linearGradient6365-5"
   id="linearGradient6565"
   x1="-182.23729"
   y1="-117.15255"
   x2="334.10168"
   y2="449.08475"
   gradientUnits="userSpaceOnUse" /><linearGradient
   y2="449.08475"
   x2="334.10168"
   y1="-117.15255"
   x1="-182.23729"
   gradientUnits="userSpaceOnUse"
   id="linearGradient6645"
   xlink:href="#linearGradient6365-5"
   inkscape:collect="always" /></defs>

<g
   id="g7058"><g
     id="g7050"><path
       inkscape:connector-curvature="0"
       id="path3228"
       d="m 360.83855,326.17849 c -1.37019,-0.48469 -2.74621,-0.93909 -4.07795,-1.45641 -20.97464,-8.16988 -40.48006,-21.27554 -61.16925,-30.32975 -5.40154,-2.3757 -10.74278,-4.90257 -16.34821,-6.22616 -5.38406,-1.22338 -10.88522,-2.03781 -16.38462,-2.03897 -1.5403,0 -3.08381,0.0786 -4.62411,0.21846 -6.58297,0.64198 -13.14818,2.75203 -19.33385,5.53436 -6.06566,2.73572 -11.81149,6.20081 -17.11283,10.6318 -3.55597,2.93263 -7.93161,5.63456 -9.68513,10.34051 l -0.0728,31.45848 c 3.56996,-6.92902 7.27244,-13.92038 12.0518,-19.58873 4.04882,-4.83179 8.77837,-9.06266 13.87231,-12.12462 5.58097,-3.34042 11.69411,-5.46387 17.87745,-6.62667 3.23672,-0.63849 6.56287,-1.0559 9.86718,-1.0559 2.5493,10e-4 5.08112,0.24293 7.57333,0.80103 20.62045,4.5475 38.86782,18.9482 58.58413,27.63539 10.80889,4.78868 21.36001,11.06086 32.73283,13.43539 3.07477,0.64199 6.21829,1.08066 9.32103,1.23795"
       style="fill:#ffffff;fill-opacity:1;stroke:#ffffff;stroke-width:3.49538589;stroke-miterlimit:4;stroke-opacity:1;stroke-dasharray:none" /><path
       inkscape:connector-curvature="0"
       id="path3232"
       d="m 313.28668,246.7677 c -5.80583,-2.9804 -11.62507,-5.87313 -17.54975,-8.41078 -5.40037,-2.29064 -10.7052,-4.90664 -16.3118,-6.15333 -5.2757,-1.20125 -10.66821,-1.96616 -16.05693,-1.96616 -1.65681,0 -3.32906,0.0682 -4.9882,0.21846 -6.57949,0.60005 -13.11178,2.61281 -19.29745,5.3159 -6.06216,2.61222 -11.81032,6.18888 -17.11282,10.44975 -3.55598,2.85923 -6.4822,6.6692 -9.68513,10.04924 l -0.10918,30.43898 c 3.57112,-6.75891 7.27594,-13.45869 12.0518,-18.96975 4.05465,-4.70945 8.81129,-8.78361 13.90872,-11.76052 5.61942,-3.26585 11.66236,-5.39192 17.84104,-6.51743 3.25537,-0.61752 6.58297,-1.01949 9.90359,-1.01949 2.53066,0 5.05404,0.22516 7.53693,0.76461 20.09846,4.30632 38.01028,17.65141 57.12771,26.17899"
       style="fill:#ffffff;fill-opacity:1;stroke:#ffffff;stroke-width:1.16512859;stroke-opacity:1" /><path
       inkscape:connector-curvature="0"
       id="path3011"
       d="m 364.60688,346.77866 c -11.37282,-2.37453 -21.93704,-8.65574 -32.74594,-13.44441 -19.71631,-8.6872 -37.96572,-23.0579 -58.58616,-27.6054 -2.49221,-0.55809 -5.03569,-0.80277 -7.58499,-0.80394 -3.3043,0 -6.62259,0.40314 -9.85932,1.04163 -6.18333,1.1628 -12.28511,3.29731 -17.86608,6.63774 -5.09394,3.06196 -9.83135,7.28671 -13.88018,12.1185 -4.77935,5.66835 -8.48097,12.66728 -12.05092,19.5963 l 0.0862,-31.47362 c 1.75352,-4.70596 6.12391,-7.40556 9.67989,-10.33819 5.30133,-4.43098 11.04309,-7.89258 17.10875,-10.6283 6.18566,-2.78233 12.73136,-4.90869 19.31433,-5.55067 1.5403,-0.13982 3.09109,-0.21089 4.63139,-0.21089 5.49941,0.001 11.01629,0.83656 16.40035,2.05995 5.60543,1.32358 10.93473,3.82162 16.33627,6.19732 20.68919,9.05421 40.19111,22.17938 61.16575,30.34926 1.33174,0.51732 2.70077,0.96007 4.07096,1.44476 l -30.298,-50.79494 c -19.11743,-8.52758 -37.00565,-21.85432 -57.10412,-26.16063 -2.48289,-0.53946 -5.01005,-0.77015 -7.54071,-0.77015 -3.32062,0 -6.64823,0.39381 -9.9036,1.01133 -6.17867,1.12551 -12.24317,3.25886 -17.86258,6.52472 -5.09744,2.9769 -9.82903,7.03854 -13.88367,11.74799 -4.77587,5.51106 -8.47165,12.23618 -12.04277,18.99509 l 0.085,-30.46345 c 3.20294,-3.38004 6.12392,-7.16438 9.67989,-10.0236 5.3025,-4.26088 11.04658,-7.84714 17.10875,-10.45936 6.18567,-2.7031 12.73136,-4.71761 19.31084,-5.31765 1.65914,-0.1503 3.31712,-0.22021 4.97393,-0.22021 5.38872,0 10.7856,0.75151 16.0613,1.95276 5.6066,1.24668 10.93473,3.86589 16.3351,6.15654 5.92468,2.53765 11.73401,5.43416 17.53985,8.41455 L 233.46816,113.02357 60.999999,398.97643 H 404.31446 l -30.42151,-50.95224 c -3.10273,-0.1573 -6.2113,-0.60354 -9.28607,-1.24553 z"
       style="fill:#f8951d" /><path
       style="fill:#1279bf;stroke:none;stroke-width:1.16512858999999990;stroke-opacity:1"
       d="m 446.90341,298.95713 c -1.19775,1.49369 -2.41881,2.95826 -3.67482,4.40069 -1.25601,1.43194 -2.54231,2.83359 -3.87871,4.18514 -1.33524,1.35621 -2.71359,2.66465 -4.15368,3.92066 -1.34223,1.17095 -2.71359,2.32676 -4.10708,3.42547 -1.41097,1.10338 -2.8534,2.16714 -4.32729,3.17964 -1.47389,1.00667 -2.98273,1.97373 -4.52536,2.86855 -1.53797,0.89249 -3.11322,1.72322 -4.71994,2.48405 -1.89683,0.89249 -3.84142,1.70924 -5.81399,2.44328 -1.98188,0.74684 -3.98707,1.40514 -6.02022,1.99703 -2.03548,0.59188 -4.08377,1.10221 -6.14372,1.54845 -2.06927,0.43343 -4.1397,0.80394 -6.20897,1.10221 -0.89831,0.127 -1.80245,0.22953 -2.69844,0.32158 -0.9053,0.0909 -1.80944,0.15729 -2.71125,0.21671 -0.90181,0.0536 -1.81527,0.0816 -2.71708,0.10253 -0.90414,0.0128 -1.81411,0.009 -2.71825,-0.0116 -0.628,-0.014 -1.25368,-0.0373 -1.87585,-0.0711 -0.63034,-0.0326 -1.25135,-0.0699 -1.87703,-0.12117 -0.61751,-0.0478 -1.24552,-0.0979 -1.8677,-0.16545 -0.62218,-0.0676 -1.24902,-0.13865 -1.87003,-0.21788 -1.24902,-0.15846 -2.47823,-0.37168 -3.70511,-0.6082 -1.22921,-0.23768 -2.43745,-0.51964 -3.65151,-0.82957 -1.21173,-0.31342 -2.41531,-0.64082 -3.61889,-1.00317 -1.20125,-0.35304 -2.39201,-0.73171 -3.59559,-1.12435 l 15.07444,22.22832 c 0.34138,0.021 0.68509,0.0408 1.02881,0.0571 0.33555,0.0163 0.68043,0.0385 1.02298,0.0548 0.33556,0.014 0.68626,0.0303 1.02997,0.0373 0.33672,0.014 0.68743,0.0233 1.02998,0.028 1.17794,0.0291 2.37453,0.0408 3.56296,0.0326 1.1861,-0.0163 2.38036,-0.0385 3.56529,-0.0792 1.19076,-0.0408 2.37686,-0.10136 3.56064,-0.17127 1.17911,-0.0734 2.35705,-0.15729 3.528,-0.25633 1.77333,-0.16428 3.53967,-0.37284 5.29435,-0.64548 1.76051,-0.2738 3.51636,-0.59771 5.26172,-0.97288 1.74187,-0.36702 3.48024,-0.79578 5.20463,-1.26766 1.72439,-0.48819 3.4348,-1.009 5.13123,-1.58691 1.72322,-0.56741 3.40916,-1.2094 5.07879,-1.89683 1.66613,-0.69441 3.31596,-1.4401 4.94947,-2.23355 1.62652,-0.78879 3.23556,-1.61836 4.82713,-2.48522 1.58807,-0.8587 3.16448,-1.75701 4.7176,-2.67513 1.31776,-0.77947 2.60057,-1.61371 3.86473,-2.48988 1.26184,-0.87851 2.50037,-1.7943 3.73307,-2.72058 1.24087,-0.92278 2.45959,-1.87469 3.68181,-2.80796 1.22455,-0.9356 2.44677,-1.85954 3.6853,-2.75669 l 1.16164,-29.99507 c -1.15115,1.54845 -2.31978,3.06662 -3.51403,4.55915 z"
       id="path3007" /><path
       inkscape:connector-curvature="0"
       id="path3009"
       d="m 331.58597,275.92836 c 0.10253,0.0571 0.20157,0.10719 0.30293,0.15962 0.099,0.0617 0.18992,0.11069 0.28546,0.16428 0.0932,0.0443 0.17593,0.0897 0.26681,0.13982 2.71242,1.22106 5.39455,2.53532 8.07085,3.86007 2.67164,1.32475 5.33745,2.66349 8.01259,3.92765 2.6763,1.26183 5.35377,2.45493 8.07318,3.47791 2.71241,1.03813 5.45979,1.91081 8.25144,2.53182 1.01016,0.22254 2.02266,0.42411 3.04448,0.58257 1.02182,0.1736 2.04946,0.30759 3.07943,0.41828 1.02881,0.11651 2.06344,0.2039 3.10041,0.27613 1.0323,0.0641 2.07859,0.1072 3.11672,0.12933 0.97405,0.021 1.95741,0.021 2.93962,-0.001 0.99036,-0.0175 1.96673,-0.0583 2.9536,-0.10719 0.97987,-0.0489 1.96441,-0.11652 2.94777,-0.19225 0.97289,-0.085 1.94926,-0.17244 2.92564,-0.27031 1.44243,-0.16428 2.88836,-0.38799 4.31797,-0.66179 1.43427,-0.27497 2.85922,-0.59888 4.27952,-0.96822 1.41563,-0.37984 2.81961,-0.80511 4.22126,-1.28048 1.39699,-0.47188 2.78116,-0.99386 4.163,-1.56244 1.38417,-0.5511 2.75087,-1.17794 4.10358,-1.84207 1.34922,-0.68276 2.68563,-1.40631 4.00805,-2.16947 1.32125,-0.77714 2.62736,-1.58923 3.91949,-2.43162 1.2898,-0.84239 2.56212,-1.72905 3.82512,-2.62969 1.0358,-0.73753 2.0448,-1.53215 3.05147,-2.35706 0.99851,-0.82724 1.99004,-1.68711 2.97224,-2.57144 0.9857,-0.87268 1.96441,-1.77216 2.94778,-2.67047 0.9822,-0.889 1.96324,-1.78731 2.96408,-2.65533 l 0.54878,-26.01383 c -0.82491,1.29213 -1.65798,2.57727 -2.50503,3.85541 -0.85753,1.26184 -1.73138,2.50852 -2.63552,3.73307 -0.9053,1.21756 -1.83391,2.42347 -2.7998,3.57229 -0.95657,1.1593 -1.95392,2.28715 -2.97807,3.3579 -1.10571,1.16862 -2.24404,2.29414 -3.40917,3.37887 -1.16513,1.0894 -2.36171,2.13801 -3.57927,3.13653 -1.22572,1.0055 -2.48056,1.95275 -3.76104,2.84757 -1.28047,0.88667 -2.59124,1.7209 -3.93114,2.4759 -1.56943,0.88899 -3.17731,1.71041 -4.80616,2.45143 -1.63234,0.74918 -3.28449,1.43544 -4.96111,2.03898 -1.67546,0.60353 -3.36606,1.13833 -5.07647,1.59739 -1.69992,0.45556 -3.41616,0.83074 -5.14404,1.13134 -0.71073,0.13049 -1.42379,0.23419 -2.14267,0.31691 -0.71423,0.0909 -1.43777,0.16429 -2.16132,0.21089 -0.72121,0.0559 -1.44476,0.0932 -2.17296,0.10137 -0.72238,0.021 -1.44942,0.0221 -2.1753,0.007 -0.57557,-0.008 -1.15231,-0.0326 -1.72905,-0.0618 -0.57091,-0.0268 -1.14299,-0.0618 -1.71623,-0.10253 -0.56859,-0.0443 -1.1395,-0.0956 -1.70342,-0.15846 -0.56043,-0.0641 -1.11852,-0.13283 -1.67313,-0.21206 -1.41446,-0.20972 -2.81262,-0.49051 -4.19329,-0.82491 -1.37718,-0.34021 -2.75087,-0.73752 -4.10242,-1.17212 -1.36087,-0.43109 -2.70776,-0.90414 -4.04649,-1.40514 -1.33407,-0.49402 -2.65067,-1.01716 -3.96843,-1.55079 -3.51985,-1.39932 -6.99543,-2.93612 -10.44072,-4.55099 -3.44645,-1.62419 -6.85678,-3.33576 -10.2473,-5.09627 -3.39519,-1.76401 -6.76124,-3.57578 -10.12381,-5.40154 -3.36838,-1.83275 -6.72046,-3.67365 -10.07836,-5.48775 l 15.24687,26.36802 c 0.10836,0.0489 0.22021,0.10719 0.32158,0.16079 z"
       style="fill:#1279bf;stroke:none;stroke-width:1.74769294000000010;stroke-miterlimit:4;stroke-opacity:1;stroke-dasharray:none" /><path
       inkscape:connector-curvature="0"
       id="path3230"
       d="m 330.54521,275.38617 30.29334,50.79232"
       style="fill:#2c3e50" /></g><rect
     y="18"
     x="18"
     height="476"
     width="476"
     id="rect6958"
     style="opacity:0.62389377;fill:none;stroke:none" /></g></svg>