<?xml version="1.0" encoding="iso-8859-1"?>
<!-- Generator: Adobe Illustrator 14.0.0, SVG Export Plug-In . SVG Version: 6.00 Build 43363)  -->
<!DOCTYPE svg PUBLIC "-//W3C//DTD SVG 1.1//EN" "http://www.w3.org/Graphics/SVG/1.1/DTD/svg11.dtd">
<svg version="1.1" id="Layer_1" xmlns="http://www.w3.org/2000/svg" xmlns:xlink="http://www.w3.org/1999/xlink" x="0px" y="0px"
	 width="512px" height="512px" viewBox="0 0 512 512" style="enable-background:new 0 0 512 512;" xml:space="preserve">
<g>
	<rect id="_x31_024" style="fill:#FFFFFF;" width="512" height="512"/>
	<g id="_x31_024_x5F_">
		<path style="fill:#1279BF;" d="M426.969,258.733c-1.028,1.282-2.076,2.539-3.154,3.777c-1.078,1.229-2.182,2.432-3.329,3.592
			c-1.146,1.164-2.329,2.287-3.565,3.365c-1.152,1.005-2.329,1.997-3.525,2.94c-1.211,0.947-2.449,1.86-3.714,2.729
			c-1.265,0.864-2.56,1.694-3.884,2.462c-1.32,0.766-2.672,1.479-4.051,2.132c-1.628,0.766-3.297,1.467-4.99,2.097
			c-1.701,0.641-3.422,1.206-5.167,1.714c-1.747,0.508-3.505,0.946-5.273,1.329c-1.776,0.372-3.553,0.69-5.329,0.946
			c-0.771,0.109-1.547,0.197-2.316,0.276c-0.777,0.078-1.553,0.135-2.327,0.186c-0.774,0.046-1.558,0.07-2.332,0.088
			c-0.776,0.011-1.557,0.008-2.333-0.01c-0.539-0.012-1.076-0.032-1.61-0.061c-0.541-0.028-1.074-0.06-1.611-0.104
			c-0.53-0.041-1.069-0.084-1.603-0.142c-0.534-0.058-1.072-0.119-1.605-0.187c-1.072-0.136-2.127-0.319-3.18-0.522
			c-1.055-0.204-2.092-0.446-3.134-0.712c-1.04-0.269-2.073-0.55-3.106-0.861c-1.031-0.303-2.053-0.628-3.086-0.965l12.938,19.078
			c0.293,0.018,0.588,0.035,0.883,0.049c0.288,0.014,0.584,0.033,0.878,0.047c0.288,0.012,0.589,0.026,0.884,0.032
			c0.289,0.012,0.59,0.02,0.884,0.024c1.011,0.025,2.038,0.035,3.058,0.028c1.018-0.014,2.043-0.033,3.06-0.068
			c1.022-0.035,2.04-0.087,3.056-0.147c1.012-0.063,2.023-0.135,3.028-0.22c1.522-0.141,3.038-0.32,4.544-0.554
			c1.511-0.235,3.018-0.513,4.516-0.835c1.495-0.315,2.987-0.683,4.467-1.088c1.48-0.419,2.948-0.866,4.404-1.362
			c1.479-0.487,2.926-1.038,4.359-1.628c1.43-0.596,2.846-1.236,4.248-1.917c1.396-0.677,2.777-1.389,4.143-2.133
			c1.363-0.737,2.716-1.508,4.049-2.296c1.131-0.669,2.232-1.385,3.317-2.137c1.083-0.754,2.146-1.54,3.204-2.335
			c1.065-0.792,2.111-1.609,3.16-2.41c1.051-0.803,2.1-1.596,3.163-2.366l0.997-25.744
			C428.997,256.149,427.994,257.452,426.969,258.733z"/>
		<path style="fill:#1279BF;" d="M325.995,238.968c0.088,0.049,0.173,0.092,0.26,0.137c0.085,0.053,0.163,0.095,0.245,0.141
			c0.08,0.038,0.151,0.077,0.229,0.12c2.328,1.048,4.63,2.176,6.927,3.313c2.293,1.137,4.581,2.286,6.877,3.371
			c2.297,1.083,4.595,2.107,6.929,2.985c2.328,0.891,4.686,1.64,7.082,2.173c0.867,0.191,1.736,0.364,2.613,0.5
			c0.877,0.149,1.759,0.264,2.643,0.359c0.883,0.1,1.771,0.175,2.661,0.237c0.886,0.055,1.784,0.092,2.675,0.111
			c0.836,0.018,1.68,0.018,2.523-0.001c0.85-0.015,1.688-0.05,2.535-0.092c0.841-0.042,1.686-0.1,2.53-0.165
			c0.835-0.073,1.673-0.148,2.511-0.232c1.238-0.141,2.479-0.333,3.706-0.568c1.231-0.236,2.454-0.514,3.673-0.831
			c1.215-0.326,2.42-0.691,3.623-1.099c1.199-0.405,2.387-0.853,3.573-1.341c1.188-0.473,2.361-1.011,3.522-1.581
			c1.158-0.586,2.305-1.207,3.44-1.862c1.134-0.667,2.255-1.364,3.364-2.087c1.107-0.723,2.199-1.484,3.283-2.257
			c0.889-0.633,1.755-1.315,2.619-2.023c0.857-0.71,1.708-1.448,2.551-2.207c0.846-0.749,1.686-1.521,2.53-2.292
			c0.843-0.763,1.685-1.534,2.544-2.279l0.471-22.327c-0.708,1.109-1.423,2.212-2.15,3.309c-0.736,1.083-1.486,2.153-2.262,3.204
			c-0.777,1.045-1.574,2.08-2.403,3.066c-0.821,0.995-1.677,1.963-2.556,2.882c-0.949,1.003-1.926,1.969-2.926,2.9
			c-1,0.935-2.027,1.835-3.072,2.692c-1.052,0.863-2.129,1.676-3.228,2.444c-1.099,0.761-2.224,1.477-3.374,2.125
			c-1.347,0.763-2.727,1.468-4.125,2.104c-1.401,0.643-2.819,1.232-4.258,1.75c-1.438,0.518-2.889,0.977-4.357,1.371
			c-1.459,0.391-2.932,0.713-4.415,0.971c-0.61,0.112-1.222,0.201-1.839,0.272c-0.613,0.078-1.234,0.141-1.855,0.181
			c-0.619,0.048-1.24,0.08-1.865,0.087c-0.62,0.018-1.244,0.019-1.867,0.006c-0.494-0.007-0.989-0.028-1.484-0.053
			c-0.49-0.023-0.981-0.053-1.473-0.088c-0.488-0.038-0.978-0.082-1.462-0.136c-0.481-0.055-0.96-0.114-1.436-0.182
			c-1.214-0.18-2.414-0.421-3.599-0.708c-1.182-0.292-2.361-0.633-3.521-1.006c-1.168-0.37-2.324-0.776-3.473-1.206
			c-1.145-0.424-2.275-0.873-3.406-1.331c-3.021-1.201-6.004-2.52-8.961-3.906c-2.958-1.394-5.885-2.863-8.795-4.374
			c-2.914-1.514-5.803-3.069-8.689-4.636c-2.891-1.573-5.768-3.153-8.65-4.71l13.086,22.631
			C325.812,238.872,325.908,238.922,325.995,238.968z"/>
		<path style="fill:#F8951D;" d="M356.336,301.777c-9.761-2.038-18.828-7.429-28.105-11.539
			c-16.922-7.456-32.585-19.79-50.283-23.693c-2.139-0.479-4.322-0.689-6.51-0.69c-2.836,0-5.684,0.346-8.462,0.894
			c-5.307,0.998-10.544,2.83-15.334,5.697c-4.372,2.628-8.438,6.254-11.913,10.401c-4.102,4.865-7.279,10.872-10.343,16.819
			l0.074-27.013c1.505-4.039,5.256-6.356,8.308-8.873c4.55-3.803,9.478-6.774,14.684-9.122c5.309-2.388,10.927-4.213,16.577-4.764
			c1.322-0.12,2.653-0.181,3.975-0.181c4.72,0.001,9.455,0.718,14.076,1.768c4.811,1.136,9.385,3.28,14.021,5.319
			c17.757,7.771,34.495,19.036,52.497,26.048c1.143,0.444,2.318,0.824,3.494,1.24l-26.004-43.596
			c-16.408-7.319-31.761-18.757-49.011-22.453c-2.131-0.463-4.3-0.661-6.472-0.661c-2.85,0-5.706,0.338-8.5,0.868
			c-5.303,0.966-10.508,2.797-15.331,5.6c-4.375,2.555-8.436,6.041-11.916,10.083c-4.099,4.73-7.271,10.502-10.336,16.303
			l0.073-26.146c2.749-2.901,5.256-6.149,8.308-8.603c4.551-3.657,9.481-6.735,14.684-8.977c5.309-2.32,10.927-4.049,16.574-4.564
			c1.424-0.129,2.847-0.189,4.269-0.189c4.625,0,9.257,0.645,13.785,1.676c4.812,1.07,9.385,3.318,14.02,5.284
			c5.085,2.178,10.071,4.664,15.054,7.222l-68.506-114.784L95.758,346.577h294.658l-26.11-43.731
			C361.643,302.711,358.975,302.328,356.336,301.777z"/>
	</g>
</g>
</svg>
