<?xml version="1.0" encoding="UTF-8" standalone="no"?>
<!-- Created with Inkscape (http://www.inkscape.org/) -->

<svg
   xmlns:dc="http://purl.org/dc/elements/1.1/"
   xmlns:cc="http://creativecommons.org/ns#"
   xmlns:rdf="http://www.w3.org/1999/02/22-rdf-syntax-ns#"
   xmlns:svg="http://www.w3.org/2000/svg"
   xmlns="http://www.w3.org/2000/svg"
   xmlns:sodipodi="http://sodipodi.sourceforge.net/DTD/sodipodi-0.dtd"
   xmlns:inkscape="http://www.inkscape.org/namespaces/inkscape"
   sodipodi:docname="close_btn.svg"
   width="64"
   height="64"
   id="svg2"
   version="1.1"
   inkscape:version="0.48.4 r9939">
  <sodipodi:namedview
     id="base"
     pagecolor="#ffffff"
     bordercolor="#666666"
     borderopacity="1.0"
     inkscape:pageopacity="0.0"
     inkscape:pageshadow="2"
     inkscape:zoom="0.35"
     inkscape:cx="755.57352"
     inkscape:cy="-384.95253"
     inkscape:document-units="px"
     inkscape:current-layer="layer1"
     showgrid="false"
     inkscape:window-width="1600"
     inkscape:window-height="832"
     inkscape:window-x="-8"
     inkscape:window-y="-8"
     inkscape:window-maximized="1"
     fit-margin-top="0"
     fit-margin-left="0"
     fit-margin-right="0"
     fit-margin-bottom="0" />
  <defs
     id="defs4">
    <linearGradient
       id="linearGradient8607">
      <stop
         id="stop8609"
         offset="0"
         style="stop-color:#7f8c8d;stop-opacity:1;" />
      <stop
         id="stop8611"
         offset="1"
         style="stop-color:#7f8c8d;stop-opacity:0.44144145;" />
    </linearGradient>
    <filter
       inkscape:collect="always"
       id="filter6779"
       inkscape:label="Darken edges"
       inkscape:menu="Shadows and Glows"
       inkscape:menu-tooltip="Darken the edges with an inner blur"
       color-interpolation-filters="sRGB">
      <feGaussianBlur
         inkscape:collect="always"
         stdDeviation="2.8112155"
         id="feGaussianBlur6781"
         result="fbSourceGraphic" />
      <feColorMatrix
         result="fbSourceGraphicAlpha"
         in="fbSourceGraphic"
         values="0 0 0 -1 0 0 0 0 -1 0 0 0 0 -1 0 0 0 0 1 0"
         id="feColorMatrix6783" />
      <feGaussianBlur
         id="feGaussianBlur6785"
         stdDeviation="3"
         in="fbSourceGraphic"
         result="fbSourceGraphic" />
      <feColorMatrix
         result="fbSourceGraphicAlpha"
         in="fbSourceGraphic"
         values="0 0 0 -1 0 0 0 0 -1 0 0 0 0 -1 0 0 0 0 1 0"
         id="feColorMatrix6787" />
      <feGaussianBlur
         id="feGaussianBlur6789"
         result="result6"
         stdDeviation="1.5"
         in="fbSourceGraphic" />
      <feComposite
         id="feComposite6791"
         in2="result6"
         operator="atop"
         in="fbSourceGraphic"
         result="result8" />
      <feComposite
         id="feComposite6793"
         in2="fbSourceGraphicAlpha"
         in="result8"
         operator="atop"
         result="fbSourceGraphic" />
      <feColorMatrix
         result="fbSourceGraphicAlpha"
         in="fbSourceGraphic"
         values="0 0 0 -1 0 0 0 0 -1 0 0 0 0 -1 0 0 0 0 1 0"
         id="feColorMatrix6795" />
      <feGaussianBlur
         id="feGaussianBlur6797"
         result="result6"
         stdDeviation="1.5"
         in="fbSourceGraphic" />
      <feComposite
         id="feComposite6799"
         in2="result6"
         operator="atop"
         in="fbSourceGraphic"
         result="result8" />
      <feComposite
         id="feComposite6801"
         in2="fbSourceGraphicAlpha"
         in="result8"
         operator="atop"
         result="result9" />
    </filter>
  </defs>
  <metadata
     id="metadata7">
    <rdf:RDF>
      <cc:Work
         rdf:about="">
        <dc:format>image/svg+xml</dc:format>
        <dc:type
           rdf:resource="http://purl.org/dc/dcmitype/StillImage" />
        <dc:title></dc:title>
      </cc:Work>
    </rdf:RDF>
  </metadata>
  <g
     id="layer1"
     inkscape:groupmode="layer"
     inkscape:label="Layer 1"
     transform="translate(849.21458,-83.862347)">
    <g
       id="g24390"
       transform="translate(-585.71428,-40.000001)">
      <g
         id="g24387">
        <rect
           style="fill:none;stroke:none"
           id="rect24385"
           width="64"
           height="64"
           x="-617.78601"
           y="232.43378" />
      </g>
      <path
         d="m -585.78599,242.93468 c -11.87337,0 -21.5,9.62483 -21.5,21.49821 0,11.87517 9.62663,21.5 21.5,21.5 11.87338,0 21.5,-9.62483 21.5,-21.5 0,-11.87338 -9.62662,-21.49821 -21.5,-21.49821 z m 13.37749,29.66104 -5.21286,5.21375 -8.16284,-8.16194 -8.16104,8.16194 -5.21196,-5.21375 8.16195,-8.16194 -8.16284,-8.16014 5.21285,-5.21375 8.16104,8.16193 8.16283,-8.16193 5.21287,5.21375 -8.16195,8.16014 8.16195,8.16194 z"
         id="path4817-8"
         inkscape:connector-curvature="0"
         style="fill:#bdc3c7" />
    </g>
    <path
       inkscape:connector-curvature="0"
       id="path4779-0-8"
       style="fill:#bdc3c7;stroke:none"
       d="m -822.87083,93.737347 -3.15625,3.34375 -0.0937,0.09375 -0.0312,0 -2.5625,2.71875 -6.75,7.093753 0,0.0625 -1.75,1.84375 0,22.5625 c 0,2.45267 1.98266,4.4375 4.4375,4.4375 l 6.875,0 c -1.34494,-1.00543 -2.52206,-2.21101 -3.46875,-3.5625 l -3.40625,0 c -0.49075,0 -0.875,-0.38424 -0.875,-0.875 l 0,-22.03125 4.84375,0.125 c 5.64743,0.61806 5.9375,-4.5 5.9375,-4.5 l 0.25,-7.750003 14.71875,0 c 0.48749,0 0.90625,0.3886 0.90625,0.875 l 0,12.968753 c 1.33296,0.80522 2.5342,1.78219 3.5625,2.90625 l 0,-15.875003 c 0,-2.45049 -2.01499,-4.4375 -4.46875,-4.4375 l -14.96875,0 z m 6.71875,17.687503 c -2.57237,0.002 -5.16367,0.84929 -7.34375,2.5625 -5.1632,4.0631 -6.03077,11.5221 -1.96875,16.6875 3.39826,4.32099 9.17737,5.65143 14,3.59375 l 9.21875,11.71875 5.03125,-3.96875 -9.25,-11.75 c 3.01197,-4.19369 3.03788,-10.0201 -0.3125,-14.28125 -2.34773,-2.98436 -5.84989,-4.5644 -9.375,-4.5625 z m -0.15625,4.875 c 2.14117,-0.0524 4.29349,0.87394 5.71875,2.6875 2.40368,3.05548 1.86473,7.47347 -1.1875,9.875 -3.05441,2.40152 -7.47349,1.86691 -9.875,-1.1875 -2.40264,-3.05441 -1.86473,-7.47347 1.1875,-9.875 1.2413,-0.9765 2.69125,-1.46419 4.15625,-1.5 z" />
  </g>
</svg>
